<svg xmlns="http://www.w3.org/2000/svg" xmlns:xlink="http://www.w3.org/1999/xlink" width="1123" zoomAndPan="magnify" viewBox="0 0 842.25 254.999984" height="340" preserveAspectRatio="xMidYMid meet" version="1.0"><defs><g/><clipPath id="9e5a5023dc"><path d="M 0.75 7 L 841.5 7 L 841.5 247 L 0.75 247 Z M 0.75 7 " clip-rule="nonzero"/></clipPath><clipPath id="dcb4d72a59"><path d="M 0.75 0.0664062 L 841.410156 0.0664062 L 841.410156 239.613281 L 0.75 239.613281 Z M 0.75 0.0664062 " clip-rule="nonzero"/></clipPath><clipPath id="9ef9bbfffb"><path d="M 0.75 70 L 824 70 L 824 239.613281 L 0.75 239.613281 Z M 0.75 70 " clip-rule="nonzero"/></clipPath><clipPath id="88c2194ef0"><rect x="0" width="824" y="0" height="170"/></clipPath><clipPath id="1f1f9e02cd"><path d="M 421 197 L 841.410156 197 L 841.410156 228 L 421 228 Z M 421 197 " clip-rule="nonzero"/></clipPath><clipPath id="c693f558ae"><rect x="0" width="421" y="0" height="31"/></clipPath><clipPath id="6fa97a509b"><path d="M 159 0.0664062 L 291 0.0664062 L 291 73 L 159 73 Z M 159 0.0664062 " clip-rule="nonzero"/></clipPath><clipPath id="5038e2f944"><rect x="0" width="132" y="0" height="73"/></clipPath><clipPath id="5894c7836c"><rect x="0" width="842" y="0" height="240"/></clipPath><clipPath id="cca024a44e"><path d="M 97.78125 200.136719 L 267.800781 200.136719 L 267.800781 224.851562 L 97.78125 224.851562 Z M 97.78125 200.136719 " clip-rule="nonzero"/></clipPath><clipPath id="634c1e3241"><rect x="0" width="842" y="0" height="240"/></clipPath></defs><g clip-path="url(#9e5a5023dc)"><g transform="matrix(1, 0, 0, 1, 0, 7)"><g clip-path="url(#634c1e3241)"><g clip-path="url(#dcb4d72a59)"><g transform="matrix(1, 0, 0, 1, 0, 0.000000000000005329)"><g clip-path="url(#5894c7836c)"><g clip-path="url(#9ef9bbfffb)"><g transform="matrix(1, 0, 0, 1, 0, 70)"><g clip-path="url(#88c2194ef0)"><g fill="#000000" fill-opacity="1"><g transform="translate(0.749333, 120.592055)"><g><path d="M 69.515625 -58.59375 L 66.78125 -54.421875 L 52.015625 -54.421875 C 43.671875 -54.421875 38.320312 -51.609375 35.96875 -45.984375 C 33.613281 -40.367188 34.894531 -32.800781 39.8125 -23.28125 C 43.019531 -17.070312 46.898438 -12.628906 51.453125 -9.953125 C 56.003906 -7.273438 60.765625 -5.988281 65.734375 -6.09375 C 70.710938 -6.207031 75.554688 -7.441406 80.265625 -9.796875 C 84.984375 -12.148438 89.109375 -15.144531 92.640625 -18.78125 L 94.40625 -16.859375 C 91.1875 -13.328125 87.625 -10.195312 83.71875 -7.46875 C 79.8125 -4.738281 75.265625 -2.625 70.078125 -1.125 C 64.890625 0.375 58.65625 1.125 51.375 1.125 C 41.3125 1.125 32.664062 -0.15625 25.4375 -2.71875 C 18.21875 -5.289062 12.65625 -8.796875 8.75 -13.234375 C 4.84375 -17.679688 2.890625 -22.847656 2.890625 -28.734375 C 2.890625 -33.984375 4.304688 -38.398438 7.140625 -41.984375 C 9.984375 -45.566406 13.863281 -48.507812 18.78125 -50.8125 C 23.707031 -53.113281 29.328125 -54.800781 35.640625 -55.875 C 29.859375 -57.375 24.878906 -59.726562 20.703125 -62.9375 C 16.535156 -66.144531 13.351562 -69.78125 11.15625 -73.84375 C 8.957031 -77.914062 7.78125 -82.066406 7.625 -86.296875 C 7.46875 -90.523438 8.507812 -94.40625 10.75 -97.9375 C 13 -101.46875 16.503906 -104.328125 21.265625 -106.515625 C 26.035156 -108.710938 32.164062 -109.8125 39.65625 -109.8125 C 43.613281 -109.8125 47.304688 -109.195312 50.734375 -107.96875 C 54.160156 -106.738281 57.289062 -105.289062 60.125 -103.625 C 62.957031 -101.96875 65.578125 -100.523438 67.984375 -99.296875 C 70.398438 -98.066406 72.625 -97.453125 74.65625 -97.453125 C 78.613281 -97.453125 81.207031 -98.492188 82.4375 -100.578125 C 83.664062 -102.671875 84.28125 -105.484375 84.28125 -109.015625 L 87.8125 -109.015625 C 88.457031 -104.617188 88.539062 -100.09375 88.0625 -95.4375 C 87.582031 -90.789062 86.378906 -86.484375 84.453125 -82.515625 C 82.523438 -78.554688 79.6875 -75.347656 75.9375 -72.890625 C 72.1875 -70.429688 67.316406 -69.203125 61.328125 -69.203125 C 57.367188 -69.203125 53.914062 -70.054688 50.96875 -71.765625 C 48.03125 -73.472656 45.4375 -75.640625 43.1875 -78.265625 C 40.9375 -80.890625 38.875 -83.566406 37 -86.296875 C 35.132812 -89.023438 33.265625 -91.40625 31.390625 -93.4375 C 29.515625 -95.46875 27.53125 -96.804688 25.4375 -97.453125 C 23.351562 -98.097656 20.921875 -97.5625 18.140625 -95.84375 C 16.003906 -94.5625 14.53125 -92.472656 13.71875 -89.578125 C 12.914062 -86.691406 12.96875 -83.484375 13.875 -79.953125 C 14.789062 -76.421875 16.613281 -73.019531 19.34375 -69.75 C 22.070312 -66.488281 25.84375 -63.8125 30.65625 -61.71875 C 35.476562 -59.632812 41.472656 -58.59375 48.640625 -58.59375 Z M 69.515625 -58.59375 "/></g></g></g><g fill="#000000" fill-opacity="1"><g transform="translate(92.097423, 120.592055)"><g><path d="M 67.75 -108.84375 L 115.4375 -108.84375 C 115.4375 -103.070312 113.988281 -97.722656 111.09375 -92.796875 C 108.207031 -87.867188 104.566406 -83.398438 100.171875 -79.390625 C 95.785156 -75.378906 91.238281 -71.847656 86.53125 -68.796875 C 81.820312 -65.742188 77.59375 -63.203125 73.84375 -61.171875 C 77.488281 -55.285156 81.238281 -49.179688 85.09375 -42.859375 C 88.945312 -36.546875 93.015625 -30.019531 97.296875 -23.28125 C 99.222656 -20.175781 101.332031 -17.550781 103.625 -15.40625 C 105.925781 -13.269531 108.253906 -11.957031 110.609375 -11.46875 C 112.972656 -10.988281 115.0625 -11.769531 116.875 -13.8125 L 119.609375 -10.921875 C 116.503906 -6.421875 112.597656 -3.285156 107.890625 -1.515625 C 103.179688 0.242188 98.789062 1.125 94.71875 1.125 C 90.976562 1.125 87.019531 0.617188 82.84375 -0.390625 C 78.664062 -1.410156 74.328125 -3.6875 69.828125 -7.21875 C 65.335938 -10.75 60.738281 -16.15625 56.03125 -23.4375 C 53.03125 -28.257812 50.269531 -32.648438 47.75 -36.609375 C 45.238281 -40.566406 42.914062 -44.257812 40.78125 -47.6875 C 38.425781 -43.507812 37.085938 -38.796875 36.765625 -33.546875 C 36.441406 -28.304688 37.375 -22.820312 39.5625 -17.09375 C 41.757812 -11.375 45.429688 -5.675781 50.578125 0 L 2.890625 0 C 2.890625 -5.675781 4.007812 -11.132812 6.25 -16.375 C 8.5 -21.625 11.414062 -26.546875 15 -31.140625 C 18.59375 -35.742188 22.367188 -39.914062 26.328125 -43.65625 C 30.285156 -47.40625 33.925781 -50.617188 37.25 -53.296875 C 33.175781 -59.929688 29.664062 -65.679688 26.71875 -70.546875 C 23.78125 -75.421875 20.816406 -80.320312 17.828125 -85.25 C 16.109375 -88.132812 13.910156 -90.617188 11.234375 -92.703125 C 8.554688 -94.796875 5.878906 -96.109375 3.203125 -96.640625 C 0.535156 -97.179688 -1.65625 -96.488281 -3.375 -94.5625 L -6.09375 -97.609375 C -2.988281 -102.109375 0.914062 -105.238281 5.625 -107 C 10.332031 -108.769531 14.71875 -109.65625 18.78125 -109.65625 C 22.53125 -109.65625 26.625 -109.117188 31.0625 -108.046875 C 35.507812 -106.972656 40.140625 -104.695312 44.953125 -101.21875 C 49.765625 -97.738281 54.472656 -92.363281 59.078125 -85.09375 C 61.003906 -81.988281 62.957031 -78.859375 64.9375 -75.703125 C 66.914062 -72.546875 68.867188 -69.359375 70.796875 -66.140625 C 74.117188 -69.671875 76.5 -73.601562 77.9375 -77.9375 C 79.382812 -82.28125 79.410156 -87.019531 78.015625 -92.15625 C 76.628906 -97.289062 73.207031 -102.851562 67.75 -108.84375 Z M 67.75 -108.84375 "/></g></g></g><g fill="#000000" fill-opacity="1"><g transform="translate(210.416466, 120.592055)"><g><path d="M 135.1875 8.671875 C 136.675781 11.878906 137.285156 15.515625 137.015625 19.578125 C 136.753906 23.648438 135.710938 27.613281 133.890625 31.46875 C 132.078125 35.320312 129.535156 38.664062 126.265625 41.5 C 123.003906 44.332031 119.070312 46.175781 114.46875 47.03125 C 109.863281 47.894531 104.671875 47.3125 98.890625 45.28125 C 94.503906 43.664062 90.863281 41.519531 87.96875 38.84375 C 85.082031 36.175781 82.648438 33.367188 80.671875 30.421875 C 78.691406 27.484375 76.898438 24.726562 75.296875 22.15625 C 73.691406 19.582031 71.976562 17.65625 70.15625 16.375 C 66.945312 14.019531 63.414062 13.054688 59.5625 13.484375 C 55.707031 13.910156 52.015625 14.925781 48.484375 16.53125 C 48.484375 16.644531 48.457031 16.703125 48.40625 16.703125 C 48.351562 16.703125 48.328125 16.703125 48.328125 16.703125 L 46.5625 13 C 46.5625 13 46.5625 12.972656 46.5625 12.921875 C 46.5625 12.867188 46.613281 12.84375 46.71875 12.84375 C 47.144531 12.625 48.988281 11.550781 52.25 9.625 C 55.519531 7.707031 60.421875 4.609375 66.953125 0.328125 C 71.015625 -2.347656 74.488281 -5.878906 77.375 -10.265625 C 80.269531 -14.660156 82.25 -19.71875 83.3125 -25.4375 C 84.382812 -31.164062 84.222656 -37.347656 82.828125 -43.984375 C 81.441406 -50.617188 78.503906 -57.523438 74.015625 -64.703125 C 69.085938 -72.722656 63.8125 -79.570312 58.1875 -85.25 C 52.570312 -90.925781 47.273438 -94.941406 42.296875 -97.296875 C 37.328125 -99.648438 33.289062 -99.863281 30.1875 -97.9375 C 27.1875 -96.007812 25.628906 -92.316406 25.515625 -86.859375 C 25.410156 -81.398438 26.671875 -74.894531 29.296875 -67.34375 C 31.921875 -59.800781 35.695312 -52.015625 40.625 -43.984375 C 45.539062 -36.171875 50.378906 -30.3125 55.140625 -26.40625 C 59.910156 -22.5 63.976562 -20.460938 67.34375 -20.296875 C 70.71875 -20.140625 72.726562 -21.773438 73.375 -25.203125 L 77.390625 -25.203125 C 77.390625 -21.242188 76.476562 -17.523438 74.65625 -14.046875 C 72.832031 -10.566406 70.070312 -7.726562 66.375 -5.53125 C 62.6875 -3.34375 58.113281 -2.25 52.65625 -2.25 C 46.988281 -2.25 41.238281 -3.503906 35.40625 -6.015625 C 29.570312 -8.535156 24.191406 -12.125 19.265625 -16.78125 C 14.335938 -21.4375 10.375 -26.945312 7.375 -33.3125 C 4.382812 -39.675781 2.890625 -46.710938 2.890625 -54.421875 C 2.890625 -62.128906 4.304688 -69.328125 7.140625 -76.015625 C 9.984375 -82.703125 13.890625 -88.585938 18.859375 -93.671875 C 23.835938 -98.765625 29.617188 -102.726562 36.203125 -105.5625 C 42.785156 -108.394531 49.820312 -109.8125 57.3125 -109.8125 C 64.800781 -109.8125 71.835938 -108.394531 78.421875 -105.5625 C 85.003906 -102.726562 90.785156 -98.765625 95.765625 -93.671875 C 100.742188 -88.585938 104.648438 -82.703125 107.484375 -76.015625 C 110.316406 -69.328125 111.734375 -62.128906 111.734375 -54.421875 C 111.734375 -46.503906 110.046875 -39.28125 106.671875 -32.75 C 103.304688 -26.21875 98.65625 -20.171875 92.71875 -14.609375 C 86.78125 -9.046875 79.898438 -3.695312 72.078125 1.4375 C 76.796875 -0.269531 80.972656 -1.285156 84.609375 -1.609375 C 88.242188 -1.929688 92.097656 -1.554688 96.171875 -0.484375 C 100.023438 0.484375 103.15625 2.035156 105.5625 4.171875 C 107.96875 6.316406 109.972656 8.644531 111.578125 11.15625 C 113.179688 13.675781 114.675781 15.976562 116.0625 18.0625 C 117.457031 20.144531 119.117188 21.507812 121.046875 22.15625 C 123.617188 23.007812 125.8125 22.660156 127.625 21.109375 C 129.445312 19.554688 130.734375 17.550781 131.484375 15.09375 C 132.234375 12.632812 132.128906 10.492188 131.171875 8.671875 Z M 135.1875 8.671875 "/></g></g></g><g fill="#000000" fill-opacity="1"><g transform="translate(325.043084, 120.592055)"><g><path d="M 71.765625 -8.34375 C 75.398438 -8.34375 78.019531 -8.957031 79.625 -10.1875 C 81.238281 -11.425781 82.175781 -12.875 82.4375 -14.53125 C 82.707031 -16.1875 82.578125 -17.65625 82.046875 -18.9375 C 81.296875 -20.863281 80.007812 -22.46875 78.1875 -23.75 C 76.363281 -25.039062 74.351562 -26.273438 72.15625 -27.453125 C 69.96875 -28.628906 67.859375 -30.046875 65.828125 -31.703125 C 63.796875 -33.367188 62.109375 -35.484375 60.765625 -38.046875 C 59.429688 -40.617188 58.765625 -43.988281 58.765625 -48.15625 L 58.765625 -108.84375 L 93.765625 -108.84375 L 93.765625 -33.875 C 93.765625 -27.019531 92.554688 -21.316406 90.140625 -16.765625 C 87.734375 -12.222656 84.628906 -8.640625 80.828125 -6.015625 C 77.035156 -3.398438 72.941406 -1.554688 68.546875 -0.484375 C 64.160156 0.585938 59.988281 1.125 56.03125 1.125 C 46.070312 1.125 37.160156 -0.742188 29.296875 -4.484375 C 21.429688 -8.234375 15.222656 -13.375 10.671875 -19.90625 C 6.128906 -26.4375 3.859375 -33.769531 3.859375 -41.90625 L 3.859375 -108.84375 L 38.859375 -108.84375 L 38.859375 -56.515625 C 38.859375 -46.773438 39.710938 -38.289062 41.421875 -31.0625 C 43.128906 -23.84375 46.335938 -18.25 51.046875 -14.28125 C 55.765625 -10.320312 62.671875 -8.34375 71.765625 -8.34375 Z M 71.765625 -8.34375 "/></g></g></g><g fill="#000000" fill-opacity="1"><g transform="translate(422.652257, 120.592055)"><g><path d="M 38.859375 0 L 3.6875 0 L 3.6875 -108.84375 L 38.859375 -108.84375 Z M 38.859375 0 "/></g></g></g><g fill="#000000" fill-opacity="1"><g transform="translate(465.195742, 120.592055)"><g><path d="M 2.890625 -76.90625 C 2.890625 -82.789062 4.46875 -88.21875 7.625 -93.1875 C 10.78125 -98.164062 15.0625 -102.179688 20.46875 -105.234375 C 25.875 -108.285156 31.945312 -109.8125 38.6875 -109.8125 C 42.644531 -109.8125 46.175781 -109.195312 49.28125 -107.96875 C 52.382812 -106.738281 55.191406 -105.289062 57.703125 -103.625 C 60.222656 -101.96875 62.550781 -100.523438 64.6875 -99.296875 C 66.832031 -98.066406 68.867188 -97.453125 70.796875 -97.453125 C 74.867188 -97.453125 77.492188 -98.492188 78.671875 -100.578125 C 79.847656 -102.671875 80.4375 -105.484375 80.4375 -109.015625 L 84.125 -109.015625 C 84.65625 -104.617188 84.707031 -100.09375 84.28125 -95.4375 C 83.851562 -90.789062 82.675781 -86.484375 80.75 -82.515625 C 78.820312 -78.554688 75.984375 -75.347656 72.234375 -72.890625 C 68.492188 -70.429688 63.628906 -69.203125 57.640625 -69.203125 C 53.679688 -69.203125 50.175781 -70.082031 47.125 -71.84375 C 44.070312 -73.613281 41.3125 -75.804688 38.84375 -78.421875 C 36.382812 -81.046875 34.164062 -83.722656 32.1875 -86.453125 C 30.207031 -89.179688 28.28125 -91.535156 26.40625 -93.515625 C 24.53125 -95.492188 22.601562 -96.695312 20.625 -97.125 C 18.644531 -97.550781 16.476562 -96.804688 14.125 -94.890625 C 11.5625 -92.742188 11.160156 -90.09375 12.921875 -86.9375 C 14.691406 -83.78125 18.410156 -80.566406 24.078125 -77.296875 C 29.753906 -74.035156 37.085938 -71.117188 46.078125 -68.546875 C 49.503906 -67.585938 53.546875 -66.222656 58.203125 -64.453125 C 62.859375 -62.691406 67.429688 -60.390625 71.921875 -57.546875 C 76.421875 -54.710938 80.164062 -51.257812 83.15625 -47.1875 C 86.15625 -43.125 87.65625 -38.3125 87.65625 -32.75 C 87.65625 -26.757812 86.050781 -21.191406 82.84375 -16.046875 C 79.632812 -10.910156 75.300781 -6.765625 69.84375 -3.609375 C 64.382812 -0.453125 58.175781 1.125 51.21875 1.125 C 47.257812 1.125 43.617188 0.484375 40.296875 -0.796875 C 36.972656 -2.085938 33.921875 -3.535156 31.140625 -5.140625 C 28.359375 -6.742188 25.789062 -8.1875 23.4375 -9.46875 C 21.082031 -10.757812 18.890625 -11.40625 16.859375 -11.40625 C 12.898438 -11.40625 10.300781 -10.359375 9.0625 -8.265625 C 7.832031 -6.179688 7.21875 -3.375 7.21875 0.15625 L 3.6875 0.15625 C 3.050781 -4.226562 2.972656 -8.75 3.453125 -13.40625 C 3.929688 -18.0625 5.132812 -22.367188 7.0625 -26.328125 C 8.988281 -30.285156 11.820312 -33.492188 15.5625 -35.953125 C 19.3125 -38.421875 24.128906 -39.65625 30.015625 -39.65625 C 33.984375 -39.65625 37.570312 -38.769531 40.78125 -37 C 43.988281 -35.238281 46.90625 -33.019531 49.53125 -30.34375 C 52.15625 -27.664062 54.585938 -24.960938 56.828125 -22.234375 C 59.078125 -19.503906 61.21875 -17.148438 63.25 -15.171875 C 65.289062 -13.191406 67.328125 -11.988281 69.359375 -11.5625 C 71.390625 -11.132812 73.53125 -11.882812 75.78125 -13.8125 C 78.34375 -16.050781 78.472656 -18.828125 76.171875 -22.140625 C 73.878906 -25.460938 69.707031 -28.835938 63.65625 -32.265625 C 57.601562 -35.691406 50.03125 -38.742188 40.9375 -41.421875 C 33.65625 -43.554688 27.125 -46.015625 21.34375 -48.796875 C 15.570312 -51.585938 11.050781 -55.203125 7.78125 -59.640625 C 4.519531 -64.085938 2.890625 -69.84375 2.890625 -76.90625 Z M 2.890625 -76.90625 "/></g></g></g><g fill="#000000" fill-opacity="1"><g transform="translate(555.741122, 120.592055)"><g><path d="M 38.859375 0 L 3.6875 0 L 3.6875 -108.84375 L 38.859375 -108.84375 Z M 38.859375 0 "/></g></g></g><g fill="#000000" fill-opacity="1"><g transform="translate(598.284608, 120.592055)"><g><path d="M 13.484375 -65.1875 C 10.484375 -67.644531 7.96875 -70.367188 5.9375 -73.359375 C 3.90625 -76.359375 2.890625 -79.894531 2.890625 -83.96875 C 2.890625 -86.101562 3.265625 -88.613281 4.015625 -91.5 C 4.765625 -94.394531 6.179688 -97.234375 8.265625 -100.015625 C 10.359375 -102.796875 13.273438 -105.125 17.015625 -107 C 20.765625 -108.875 25.632812 -109.8125 31.625 -109.8125 C 37.625 -109.8125 43.109375 -108.953125 48.078125 -107.234375 C 53.054688 -105.523438 57.632812 -103.546875 61.8125 -101.296875 C 65.988281 -99.054688 69.757812 -97.078125 73.125 -95.359375 C 76.5 -93.648438 79.578125 -92.796875 82.359375 -92.796875 C 86.109375 -92.796875 89.1875 -93.597656 91.59375 -95.203125 C 94 -96.804688 95.789062 -98.8125 96.96875 -101.21875 C 98.144531 -103.632812 98.734375 -106.125 98.734375 -108.6875 L 102.75 -108.6875 C 102.75 -101.300781 101.515625 -95.039062 99.046875 -89.90625 C 96.585938 -84.769531 93.40625 -80.59375 89.5 -77.375 C 85.59375 -74.164062 81.414062 -71.835938 76.96875 -70.390625 C 72.53125 -68.953125 68.332031 -68.234375 64.375 -68.234375 C 59.882812 -68.234375 55.710938 -68.6875 51.859375 -69.59375 C 48.003906 -70.507812 44.414062 -71.609375 41.09375 -72.890625 C 42.488281 -69.140625 44.363281 -66.40625 46.71875 -64.6875 C 49.070312 -62.976562 51.613281 -61.800781 54.34375 -61.15625 C 57.070312 -60.519531 59.664062 -59.90625 62.125 -59.3125 C 64.59375 -58.726562 66.601562 -57.6875 68.15625 -56.1875 C 69.707031 -54.6875 70.484375 -52.171875 70.484375 -48.640625 L 70.484375 0 L 35.3125 0 L 35.3125 -75.296875 C 32.21875 -76.691406 29.4375 -77.921875 26.96875 -78.984375 C 24.507812 -80.054688 22.367188 -80.59375 20.546875 -80.59375 C 17.984375 -80.59375 16.164062 -79.734375 15.09375 -78.015625 C 14.019531 -76.304688 13.613281 -74.460938 13.875 -72.484375 C 14.144531 -70.503906 14.976562 -68.976562 16.375 -67.90625 Z M 13.484375 -65.1875 "/></g></g></g><g fill="#000000" fill-opacity="1"><g transform="translate(703.920921, 120.592055)"><g><path d="M 50.40625 0 L 2.890625 0 C 2.890625 -5.78125 3.742188 -11.828125 5.453125 -18.140625 C 7.171875 -24.453125 9.394531 -30.710938 12.125 -36.921875 C 14.851562 -43.128906 17.738281 -48.960938 20.78125 -54.421875 C 23.832031 -59.878906 26.695312 -64.644531 29.375 -68.71875 C 31.195312 -71.5 33.175781 -74.28125 35.3125 -77.0625 C 37.457031 -79.84375 39.546875 -82.519531 41.578125 -85.09375 C 39.546875 -91.832031 37.566406 -96.914062 35.640625 -100.34375 C 33.710938 -103.769531 30.929688 -105.484375 27.296875 -105.484375 L 27.296875 -109.65625 C 35.429688 -109.65625 42.570312 -108.582031 48.71875 -106.4375 C 54.875 -104.300781 60.171875 -101.46875 64.609375 -97.9375 C 69.054688 -94.40625 72.722656 -90.441406 75.609375 -86.046875 C 78.503906 -81.660156 80.703125 -77.222656 82.203125 -72.734375 C 85.628906 -62.453125 88.460938 -52.65625 90.703125 -43.34375 C 92.953125 -34.03125 95.679688 -25.628906 98.890625 -18.140625 C 100.929688 -13.535156 103.6875 -10.992188 107.15625 -10.515625 C 110.632812 -10.035156 113.660156 -11.132812 116.234375 -13.8125 L 118.96875 -10.921875 C 115.757812 -6.421875 111.828125 -3.285156 107.171875 -1.515625 C 102.515625 0.242188 98.148438 1.125 94.078125 1.125 C 88.191406 1.125 82.867188 -0.316406 78.109375 -3.203125 C 73.347656 -6.097656 69.304688 -9.875 65.984375 -14.53125 C 62.660156 -19.1875 60.09375 -24.132812 58.28125 -29.375 L 34.359375 -29.375 C 36.179688 -23.59375 38.507812 -18.132812 41.34375 -13 C 44.175781 -7.863281 47.195312 -3.53125 50.40625 0 Z M 57 -33.234375 C 54.644531 -40.617188 52.316406 -48.484375 50.015625 -56.828125 C 47.710938 -65.179688 45.382812 -73.101562 43.03125 -80.59375 C 42.0625 -79.195312 41.09375 -77.859375 40.125 -76.578125 C 39.164062 -75.296875 38.207031 -73.90625 37.25 -72.40625 C 33.601562 -66.945312 31.617188 -60.765625 31.296875 -53.859375 C 30.984375 -46.960938 31.679688 -40.085938 33.390625 -33.234375 Z M 57 -33.234375 "/></g></g></g></g></g></g><g clip-path="url(#1f1f9e02cd)"><g transform="matrix(1, 0, 0, 1, 421, 197)"><g clip-path="url(#c693f558ae)"><g fill="#000000" fill-opacity="1"><g transform="translate(0.554707, 23.686191)"><g><path d="M 13.46875 -9.171875 C 14.15625 -7.585938 14.9375 -6.171875 15.8125 -4.921875 C 16.695312 -3.679688 17.617188 -2.59375 18.578125 -1.65625 C 19.535156 -0.71875 20.453125 0.0820312 21.328125 0.75 C 21.285156 0.875 21.1875 1.019531 21.03125 1.1875 C 20.875 1.351562 20.585938 1.394531 20.171875 1.3125 C 18.878906 0.789062 17.582031 -0.0078125 16.28125 -1.09375 C 14.988281 -2.175781 13.78125 -3.4375 12.65625 -4.875 C 11.53125 -6.320312 10.550781 -7.863281 9.71875 -9.5 L 8.140625 -9.65625 C 8.015625 -9.695312 7.96875 -9.789062 8 -9.9375 C 8.03125 -10.082031 8.148438 -10.164062 8.359375 -10.1875 L 10.25 -10.25 C 12.164062 -10.351562 13.597656 -10.847656 14.546875 -11.734375 C 15.503906 -12.617188 15.984375 -13.953125 15.984375 -15.734375 C 15.984375 -17.441406 15.472656 -18.75 14.453125 -19.65625 C 13.441406 -20.5625 11.9375 -21.023438 9.9375 -21.046875 L 7.640625 -21.078125 C 7.265625 -21.078125 7.003906 -21 6.859375 -20.84375 C 6.710938 -20.6875 6.640625 -20.390625 6.640625 -19.953125 L 6.640625 -2.9375 C 6.640625 -2.0625 6.765625 -1.507812 7.015625 -1.28125 C 7.265625 -1.050781 7.679688 -0.875 8.265625 -0.75 C 8.640625 -0.664062 8.816406 -0.507812 8.796875 -0.28125 C 8.773438 -0.0507812 8.742188 0.0625 8.703125 0.0625 C 8.515625 0.0625 8.273438 0.0507812 7.984375 0.03125 C 7.691406 0.0078125 7.429688 0 7.203125 0 L 3.09375 0 C 2.882812 0 2.628906 0.0078125 2.328125 0.03125 C 2.023438 0.0507812 1.769531 0.0625 1.5625 0.0625 C 1.539062 0.0625 1.519531 -0.0507812 1.5 -0.28125 C 1.476562 -0.507812 1.65625 -0.664062 2.03125 -0.75 C 2.613281 -0.875 3.023438 -1.050781 3.265625 -1.28125 C 3.515625 -1.507812 3.640625 -2.0625 3.640625 -2.9375 L 3.640625 -18.890625 C 3.640625 -19.765625 3.515625 -20.316406 3.265625 -20.546875 C 3.023438 -20.773438 2.601562 -20.953125 2 -21.078125 C 1.644531 -21.160156 1.476562 -21.3125 1.5 -21.53125 C 1.519531 -21.757812 1.539062 -21.875 1.5625 -21.875 C 1.75 -21.875 2 -21.863281 2.3125 -21.84375 C 2.625 -21.820312 2.882812 -21.8125 3.09375 -21.8125 C 4.5625 -21.832031 5.890625 -21.859375 7.078125 -21.890625 C 8.265625 -21.921875 9.414062 -21.9375 10.53125 -21.9375 C 13.46875 -21.9375 15.671875 -21.410156 17.140625 -20.359375 C 18.617188 -19.316406 19.359375 -17.816406 19.359375 -15.859375 C 19.359375 -13.972656 18.726562 -12.5 17.46875 -11.4375 C 16.207031 -10.375 14.539062 -9.78125 12.46875 -9.65625 L 12.25 -9.59375 L 12.96875 -9.59375 C 13.21875 -9.59375 13.382812 -9.453125 13.46875 -9.171875 Z M 13.46875 -9.171875 "/></g></g></g><g fill="#000000" fill-opacity="1"><g transform="translate(21.960134, 23.686191)"><g><path d="M 12.28125 0 L 3.09375 0 C 2.882812 0 2.628906 0.0078125 2.328125 0.03125 C 2.023438 0.0507812 1.769531 0.0625 1.5625 0.0625 C 1.539062 0.0625 1.519531 -0.0507812 1.5 -0.28125 C 1.476562 -0.507812 1.65625 -0.664062 2.03125 -0.75 C 2.613281 -0.875 3.023438 -1.050781 3.265625 -1.28125 C 3.515625 -1.507812 3.640625 -2.0625 3.640625 -2.9375 L 3.640625 -18.890625 C 3.640625 -19.765625 3.515625 -20.316406 3.265625 -20.546875 C 3.023438 -20.773438 2.613281 -20.953125 2.03125 -21.078125 C 1.65625 -21.179688 1.476562 -21.335938 1.5 -21.546875 C 1.519531 -21.765625 1.539062 -21.875 1.5625 -21.875 C 1.769531 -21.875 2.023438 -21.863281 2.328125 -21.84375 C 2.628906 -21.820312 2.882812 -21.8125 3.09375 -21.8125 L 11.9375 -21.8125 C 13.332031 -21.8125 14.375 -21.875 15.0625 -22 C 15.757812 -22.125 16.253906 -22.175781 16.546875 -22.15625 C 16.710938 -22.15625 16.847656 -22.113281 16.953125 -22.03125 C 17.054688 -21.945312 17.109375 -21.765625 17.109375 -21.484375 C 17.085938 -20.753906 17.125 -19.8125 17.21875 -18.65625 C 17.3125 -17.5 17.484375 -16.09375 17.734375 -14.4375 C 17.734375 -14.4375 17.632812 -14.4375 17.4375 -14.4375 C 17.238281 -14.4375 17.035156 -14.484375 16.828125 -14.578125 C 16.617188 -14.671875 16.492188 -14.851562 16.453125 -15.125 C 16.203125 -16.90625 15.988281 -18.171875 15.8125 -18.921875 C 15.644531 -19.671875 15.425781 -20.160156 15.15625 -20.390625 C 14.945312 -20.578125 14.59375 -20.707031 14.09375 -20.78125 C 13.59375 -20.851562 12.816406 -20.898438 11.765625 -20.921875 C 10.710938 -20.941406 9.253906 -20.953125 7.390625 -20.953125 C 6.890625 -20.953125 6.640625 -20.660156 6.640625 -20.078125 L 6.640625 -12.78125 C 6.640625 -12.613281 6.679688 -12.441406 6.765625 -12.265625 C 6.847656 -12.085938 7.015625 -12 7.265625 -12 C 7.367188 -12 7.613281 -12 8 -12 C 8.382812 -12 8.828125 -12.007812 9.328125 -12.03125 C 9.835938 -12.050781 10.3125 -12.082031 10.75 -12.125 C 11 -12.144531 11.203125 -12.207031 11.359375 -12.3125 C 11.515625 -12.414062 11.65625 -12.628906 11.78125 -12.953125 C 11.90625 -13.273438 12.039062 -13.769531 12.1875 -14.4375 C 12.269531 -14.726562 12.382812 -14.898438 12.53125 -14.953125 C 12.675781 -15.003906 12.816406 -15.007812 12.953125 -14.96875 C 13.085938 -14.925781 13.15625 -14.90625 13.15625 -14.90625 C 12.988281 -13.820312 12.9375 -12.664062 13 -11.4375 C 13.0625 -10.207031 13.164062 -9.078125 13.3125 -8.046875 C 13.3125 -8.046875 13.179688 -8.039062 12.921875 -8.03125 C 12.660156 -8.019531 12.488281 -8.148438 12.40625 -8.421875 C 12.195312 -9.203125 12.023438 -9.773438 11.890625 -10.140625 C 11.753906 -10.503906 11.609375 -10.738281 11.453125 -10.84375 C 11.296875 -10.945312 11.070312 -11 10.78125 -11 C 10.40625 -11.039062 9.972656 -11.066406 9.484375 -11.078125 C 9.003906 -11.085938 8.554688 -11.097656 8.140625 -11.109375 C 7.722656 -11.117188 7.429688 -11.125 7.265625 -11.125 C 7.015625 -11.125 6.847656 -11.023438 6.765625 -10.828125 C 6.679688 -10.628906 6.640625 -10.445312 6.640625 -10.28125 L 6.640625 -1.90625 C 6.640625 -1.40625 6.757812 -1.109375 7 -1.015625 C 7.238281 -0.921875 7.710938 -0.875 8.421875 -0.875 C 10.117188 -0.875 11.460938 -0.882812 12.453125 -0.90625 C 13.441406 -0.925781 14.195312 -0.96875 14.71875 -1.03125 C 15.238281 -1.09375 15.617188 -1.195312 15.859375 -1.34375 C 16.066406 -1.445312 16.242188 -1.640625 16.390625 -1.921875 C 16.535156 -2.203125 16.6875 -2.707031 16.84375 -3.4375 C 17 -4.175781 17.179688 -5.285156 17.390625 -6.765625 C 17.453125 -7.054688 17.59375 -7.242188 17.8125 -7.328125 C 18.03125 -7.410156 18.242188 -7.445312 18.453125 -7.4375 C 18.660156 -7.425781 18.765625 -7.410156 18.765625 -7.390625 C 18.597656 -6.203125 18.445312 -4.984375 18.3125 -3.734375 C 18.175781 -2.492188 18.117188 -1.382812 18.140625 -0.40625 C 18.140625 0.132812 17.941406 0.382812 17.546875 0.34375 C 17.359375 0.34375 17.09375 0.3125 16.75 0.25 C 16.40625 0.1875 15.890625 0.128906 15.203125 0.078125 C 14.523438 0.0234375 13.550781 0 12.28125 0 Z M 12.28125 0 "/></g></g></g><g fill="#000000" fill-opacity="1"><g transform="translate(41.963453, 23.686191)"><g><path d="M 9.96875 -9.078125 L 8.046875 -9.140625 C 7.898438 -9.296875 7.832031 -9.46875 7.84375 -9.65625 C 7.851562 -9.84375 7.960938 -9.945312 8.171875 -9.96875 L 9.84375 -9.9375 C 13.769531 -9.914062 15.734375 -11.675781 15.734375 -15.21875 C 15.734375 -16.332031 15.503906 -17.328125 15.046875 -18.203125 C 14.597656 -19.078125 13.957031 -19.769531 13.125 -20.28125 C 12.289062 -20.789062 11.289062 -21.046875 10.125 -21.046875 L 7.671875 -21.078125 C 7.253906 -21.078125 6.976562 -21.003906 6.84375 -20.859375 C 6.707031 -20.710938 6.640625 -20.390625 6.640625 -19.890625 L 6.640625 -2.9375 C 6.640625 -2.0625 6.800781 -1.507812 7.125 -1.28125 C 7.445312 -1.050781 7.992188 -0.875 8.765625 -0.75 C 9.097656 -0.6875 9.296875 -0.59375 9.359375 -0.46875 C 9.429688 -0.34375 9.453125 -0.222656 9.421875 -0.109375 C 9.390625 0.00390625 9.363281 0.0625 9.34375 0.0625 C 9.101562 0.0625 8.789062 0.0507812 8.40625 0.03125 C 8.019531 0.0078125 7.679688 0 7.390625 0 L 3.09375 0 C 2.882812 0 2.628906 0.0078125 2.328125 0.03125 C 2.023438 0.0507812 1.769531 0.0625 1.5625 0.0625 C 1.539062 0.0625 1.519531 -0.0507812 1.5 -0.28125 C 1.476562 -0.507812 1.65625 -0.664062 2.03125 -0.75 C 2.613281 -0.875 3.023438 -1.050781 3.265625 -1.28125 C 3.515625 -1.507812 3.640625 -2.0625 3.640625 -2.9375 L 3.640625 -18.890625 C 3.640625 -19.765625 3.515625 -20.316406 3.265625 -20.546875 C 3.023438 -20.773438 2.601562 -20.953125 2 -21.078125 C 1.644531 -21.160156 1.476562 -21.3125 1.5 -21.53125 C 1.519531 -21.757812 1.539062 -21.875 1.5625 -21.875 C 1.75 -21.875 2 -21.863281 2.3125 -21.84375 C 2.625 -21.820312 2.882812 -21.8125 3.09375 -21.8125 C 4.582031 -21.832031 5.929688 -21.859375 7.140625 -21.890625 C 8.347656 -21.921875 9.507812 -21.9375 10.625 -21.9375 C 13.289062 -21.9375 15.347656 -21.359375 16.796875 -20.203125 C 18.253906 -19.054688 18.984375 -17.457031 18.984375 -15.40625 C 18.984375 -14.09375 18.671875 -12.941406 18.046875 -11.953125 C 17.421875 -10.960938 16.445312 -10.207031 15.125 -9.6875 C 13.8125 -9.175781 12.09375 -8.972656 9.96875 -9.078125 Z M 9.96875 -9.078125 "/></g></g></g><g fill="#000000" fill-opacity="1"><g transform="translate(61.84215, 23.686191)"><g><path d="M 12 0.46875 C 9.925781 0.46875 8.078125 -0.00390625 6.453125 -0.953125 C 4.828125 -1.898438 3.554688 -3.195312 2.640625 -4.84375 C 1.734375 -6.5 1.28125 -8.382812 1.28125 -10.5 C 1.28125 -12.144531 1.585938 -13.675781 2.203125 -15.09375 C 2.828125 -16.519531 3.691406 -17.769531 4.796875 -18.84375 C 5.898438 -19.914062 7.179688 -20.75 8.640625 -21.34375 C 10.109375 -21.945312 11.6875 -22.25 13.375 -22.25 C 14.96875 -22.25 16.429688 -21.976562 17.765625 -21.4375 C 19.097656 -20.90625 20.25 -20.144531 21.21875 -19.15625 C 22.195312 -18.164062 22.953125 -17.003906 23.484375 -15.671875 C 24.015625 -14.347656 24.28125 -12.90625 24.28125 -11.34375 C 24.28125 -9.019531 23.757812 -6.96875 22.71875 -5.1875 C 21.6875 -3.414062 20.242188 -2.03125 18.390625 -1.03125 C 16.535156 -0.03125 14.40625 0.46875 12 0.46875 Z M 13.4375 -0.6875 C 14.988281 -0.6875 16.347656 -1.039062 17.515625 -1.75 C 18.679688 -2.457031 19.582031 -3.46875 20.21875 -4.78125 C 20.851562 -6.101562 21.171875 -7.664062 21.171875 -9.46875 C 21.171875 -10.757812 20.945312 -12.085938 20.5 -13.453125 C 20.050781 -14.816406 19.414062 -16.070312 18.59375 -17.21875 C 17.769531 -18.375 16.796875 -19.3125 15.671875 -20.03125 C 14.554688 -20.75 13.332031 -21.109375 12 -21.109375 C 10.539062 -21.109375 9.234375 -20.726562 8.078125 -19.96875 C 6.929688 -19.207031 6.023438 -18.179688 5.359375 -16.890625 C 4.691406 -15.609375 4.359375 -14.15625 4.359375 -12.53125 C 4.359375 -11.21875 4.582031 -9.867188 5.03125 -8.484375 C 5.476562 -7.109375 6.109375 -5.828125 6.921875 -4.640625 C 7.734375 -3.460938 8.691406 -2.507812 9.796875 -1.78125 C 10.910156 -1.050781 12.125 -0.6875 13.4375 -0.6875 Z M 13.4375 -0.6875 "/></g></g></g><g fill="#000000" fill-opacity="1"><g transform="translate(87.391575, 23.686191)"><g><path d="M 2.03125 -3.859375 L 3.203125 -8.703125 C 3.203125 -8.722656 3.257812 -8.734375 3.375 -8.734375 C 3.488281 -8.734375 3.601562 -8.679688 3.71875 -8.578125 C 3.832031 -8.472656 3.878906 -8.273438 3.859375 -7.984375 C 3.671875 -6.066406 3.757812 -4.566406 4.125 -3.484375 C 4.488281 -2.410156 5.117188 -1.648438 6.015625 -1.203125 C 6.910156 -0.753906 8.070312 -0.53125 9.5 -0.53125 C 10.0625 -0.53125 10.65625 -0.601562 11.28125 -0.75 C 11.90625 -0.894531 12.484375 -1.128906 13.015625 -1.453125 C 13.546875 -1.773438 13.976562 -2.207031 14.3125 -2.75 C 14.644531 -3.300781 14.8125 -3.992188 14.8125 -4.828125 C 14.8125 -5.742188 14.550781 -6.535156 14.03125 -7.203125 C 13.507812 -7.867188 12.832031 -8.460938 12 -8.984375 C 11.164062 -9.515625 10.265625 -10.019531 9.296875 -10.5 C 8.109375 -11.144531 7.03125 -11.769531 6.0625 -12.375 C 5.09375 -12.976562 4.320312 -13.640625 3.75 -14.359375 C 3.1875 -15.078125 2.90625 -15.898438 2.90625 -16.828125 C 2.90625 -17.847656 3.195312 -18.765625 3.78125 -19.578125 C 4.375 -20.390625 5.253906 -21.035156 6.421875 -21.515625 C 7.585938 -22.003906 9.019531 -22.25 10.71875 -22.25 C 11.550781 -22.25 12.378906 -22.15625 13.203125 -21.96875 C 14.023438 -21.789062 14.757812 -21.53125 15.40625 -21.1875 C 16.0625 -20.84375 16.554688 -20.425781 16.890625 -19.9375 C 17.222656 -19.445312 17.328125 -18.898438 17.203125 -18.296875 L 16.046875 -13.625 C 16.046875 -13.625 15.976562 -13.625 15.84375 -13.625 C 15.707031 -13.625 15.578125 -13.675781 15.453125 -13.78125 C 15.335938 -13.882812 15.289062 -14.09375 15.3125 -14.40625 C 15.550781 -16.1875 15.535156 -17.570312 15.265625 -18.5625 C 15.003906 -19.550781 14.488281 -20.25 13.71875 -20.65625 C 12.945312 -21.0625 11.914062 -21.265625 10.625 -21.265625 C 8.945312 -21.265625 7.742188 -20.9375 7.015625 -20.28125 C 6.285156 -19.625 5.921875 -18.867188 5.921875 -18.015625 C 5.921875 -17.203125 6.140625 -16.519531 6.578125 -15.96875 C 7.015625 -15.425781 7.609375 -14.9375 8.359375 -14.5 C 9.117188 -14.0625 9.976562 -13.59375 10.9375 -13.09375 C 12.125 -12.488281 13.234375 -11.859375 14.265625 -11.203125 C 15.304688 -10.546875 16.15625 -9.785156 16.8125 -8.921875 C 17.46875 -8.066406 17.796875 -7.023438 17.796875 -5.796875 C 17.796875 -4.566406 17.453125 -3.476562 16.765625 -2.53125 C 16.078125 -1.59375 15.097656 -0.859375 13.828125 -0.328125 C 12.566406 0.203125 11.046875 0.46875 9.265625 0.46875 C 7.765625 0.46875 6.4375 0.257812 5.28125 -0.15625 C 4.125 -0.570312 3.253906 -1.113281 2.671875 -1.78125 C 2.097656 -2.445312 1.882812 -3.140625 2.03125 -3.859375 Z M 2.03125 -3.859375 "/></g></g></g><g fill="#000000" fill-opacity="1"><g transform="translate(106.553639, 23.686191)"><g><path d="M 19.859375 -21.484375 C 19.835938 -20.585938 19.878906 -19.515625 19.984375 -18.265625 C 20.085938 -17.015625 20.265625 -15.550781 20.515625 -13.875 C 20.515625 -13.875 20.429688 -13.863281 20.265625 -13.84375 C 20.097656 -13.820312 19.914062 -13.851562 19.71875 -13.9375 C 19.519531 -14.019531 19.390625 -14.207031 19.328125 -14.5 C 19.054688 -16.113281 18.816406 -17.34375 18.609375 -18.1875 C 18.398438 -19.03125 18.179688 -19.628906 17.953125 -19.984375 C 17.722656 -20.335938 17.421875 -20.578125 17.046875 -20.703125 C 16.628906 -20.972656 15.207031 -21.054688 12.78125 -20.953125 C 12.570312 -20.953125 12.390625 -20.863281 12.234375 -20.6875 C 12.078125 -20.507812 12 -20.234375 12 -19.859375 L 12 -2.9375 C 12 -2.0625 12.179688 -1.507812 12.546875 -1.28125 C 12.910156 -1.050781 13.507812 -0.875 14.34375 -0.75 C 14.695312 -0.6875 14.921875 -0.59375 15.015625 -0.46875 C 15.109375 -0.34375 15.132812 -0.222656 15.09375 -0.109375 C 15.050781 0.00390625 15.019531 0.0625 15 0.0625 C 14.726562 0.0625 14.375 0.0507812 13.9375 0.03125 C 13.5 0.0078125 13.132812 0 12.84375 0 L 8.203125 0 C 7.890625 0 7.519531 0.0078125 7.09375 0.03125 C 6.664062 0.0507812 6.304688 0.0625 6.015625 0.0625 C 5.992188 0.0625 5.96875 0.00390625 5.9375 -0.109375 C 5.90625 -0.222656 5.929688 -0.34375 6.015625 -0.46875 C 6.097656 -0.59375 6.316406 -0.6875 6.671875 -0.75 C 7.523438 -0.875 8.128906 -1.050781 8.484375 -1.28125 C 8.835938 -1.507812 9.015625 -2.0625 9.015625 -2.9375 L 9.015625 -19.859375 C 9.015625 -20.234375 8.941406 -20.507812 8.796875 -20.6875 C 8.648438 -20.863281 8.460938 -20.953125 8.234375 -20.953125 C 7.046875 -20.953125 6.082031 -20.9375 5.34375 -20.90625 C 4.601562 -20.875 4.148438 -20.804688 3.984375 -20.703125 C 3.648438 -20.597656 3.359375 -20.367188 3.109375 -20.015625 C 2.867188 -19.660156 2.640625 -19.054688 2.421875 -18.203125 C 2.203125 -17.347656 1.957031 -16.113281 1.6875 -14.5 C 1.625 -14.207031 1.5 -14.019531 1.3125 -13.9375 C 1.125 -13.851562 0.945312 -13.820312 0.78125 -13.84375 C 0.613281 -13.863281 0.53125 -13.875 0.53125 -13.875 C 0.757812 -15.550781 0.9375 -17.023438 1.0625 -18.296875 C 1.1875 -19.566406 1.226562 -20.628906 1.1875 -21.484375 C 1.164062 -21.765625 1.210938 -21.945312 1.328125 -22.03125 C 1.441406 -22.113281 1.570312 -22.15625 1.71875 -22.15625 C 1.882812 -22.15625 2.082031 -22.140625 2.3125 -22.109375 C 2.539062 -22.078125 2.890625 -22.035156 3.359375 -21.984375 C 3.835938 -21.929688 4.523438 -21.890625 5.421875 -21.859375 C 6.316406 -21.828125 7.515625 -21.8125 9.015625 -21.8125 L 12 -21.8125 C 13.5 -21.8125 14.695312 -21.828125 15.59375 -21.859375 C 16.5 -21.890625 17.1875 -21.929688 17.65625 -21.984375 C 18.125 -22.035156 18.472656 -22.078125 18.703125 -22.109375 C 18.929688 -22.140625 19.128906 -22.15625 19.296875 -22.15625 C 19.460938 -22.15625 19.597656 -22.113281 19.703125 -22.03125 C 19.804688 -21.945312 19.859375 -21.765625 19.859375 -21.484375 Z M 19.859375 -21.484375 "/></g></g></g><g fill="#000000" fill-opacity="1"><g transform="translate(127.554008, 23.686191)"><g><path d="M 12.28125 0 L 3.09375 0 C 2.882812 0 2.628906 0.0078125 2.328125 0.03125 C 2.023438 0.0507812 1.769531 0.0625 1.5625 0.0625 C 1.539062 0.0625 1.519531 -0.0507812 1.5 -0.28125 C 1.476562 -0.507812 1.65625 -0.664062 2.03125 -0.75 C 2.613281 -0.875 3.023438 -1.050781 3.265625 -1.28125 C 3.515625 -1.507812 3.640625 -2.0625 3.640625 -2.9375 L 3.640625 -18.890625 C 3.640625 -19.765625 3.515625 -20.316406 3.265625 -20.546875 C 3.023438 -20.773438 2.613281 -20.953125 2.03125 -21.078125 C 1.65625 -21.179688 1.476562 -21.335938 1.5 -21.546875 C 1.519531 -21.765625 1.539062 -21.875 1.5625 -21.875 C 1.769531 -21.875 2.023438 -21.863281 2.328125 -21.84375 C 2.628906 -21.820312 2.882812 -21.8125 3.09375 -21.8125 L 11.9375 -21.8125 C 13.332031 -21.8125 14.375 -21.875 15.0625 -22 C 15.757812 -22.125 16.253906 -22.175781 16.546875 -22.15625 C 16.710938 -22.15625 16.847656 -22.113281 16.953125 -22.03125 C 17.054688 -21.945312 17.109375 -21.765625 17.109375 -21.484375 C 17.085938 -20.753906 17.125 -19.8125 17.21875 -18.65625 C 17.3125 -17.5 17.484375 -16.09375 17.734375 -14.4375 C 17.734375 -14.4375 17.632812 -14.4375 17.4375 -14.4375 C 17.238281 -14.4375 17.035156 -14.484375 16.828125 -14.578125 C 16.617188 -14.671875 16.492188 -14.851562 16.453125 -15.125 C 16.203125 -16.90625 15.988281 -18.171875 15.8125 -18.921875 C 15.644531 -19.671875 15.425781 -20.160156 15.15625 -20.390625 C 14.945312 -20.578125 14.59375 -20.707031 14.09375 -20.78125 C 13.59375 -20.851562 12.816406 -20.898438 11.765625 -20.921875 C 10.710938 -20.941406 9.253906 -20.953125 7.390625 -20.953125 C 6.890625 -20.953125 6.640625 -20.660156 6.640625 -20.078125 L 6.640625 -12.78125 C 6.640625 -12.613281 6.679688 -12.441406 6.765625 -12.265625 C 6.847656 -12.085938 7.015625 -12 7.265625 -12 C 7.367188 -12 7.613281 -12 8 -12 C 8.382812 -12 8.828125 -12.007812 9.328125 -12.03125 C 9.835938 -12.050781 10.3125 -12.082031 10.75 -12.125 C 11 -12.144531 11.203125 -12.207031 11.359375 -12.3125 C 11.515625 -12.414062 11.65625 -12.628906 11.78125 -12.953125 C 11.90625 -13.273438 12.039062 -13.769531 12.1875 -14.4375 C 12.269531 -14.726562 12.382812 -14.898438 12.53125 -14.953125 C 12.675781 -15.003906 12.816406 -15.007812 12.953125 -14.96875 C 13.085938 -14.925781 13.15625 -14.90625 13.15625 -14.90625 C 12.988281 -13.820312 12.9375 -12.664062 13 -11.4375 C 13.0625 -10.207031 13.164062 -9.078125 13.3125 -8.046875 C 13.3125 -8.046875 13.179688 -8.039062 12.921875 -8.03125 C 12.660156 -8.019531 12.488281 -8.148438 12.40625 -8.421875 C 12.195312 -9.203125 12.023438 -9.773438 11.890625 -10.140625 C 11.753906 -10.503906 11.609375 -10.738281 11.453125 -10.84375 C 11.296875 -10.945312 11.070312 -11 10.78125 -11 C 10.40625 -11.039062 9.972656 -11.066406 9.484375 -11.078125 C 9.003906 -11.085938 8.554688 -11.097656 8.140625 -11.109375 C 7.722656 -11.117188 7.429688 -11.125 7.265625 -11.125 C 7.015625 -11.125 6.847656 -11.023438 6.765625 -10.828125 C 6.679688 -10.628906 6.640625 -10.445312 6.640625 -10.28125 L 6.640625 -1.90625 C 6.640625 -1.40625 6.757812 -1.109375 7 -1.015625 C 7.238281 -0.921875 7.710938 -0.875 8.421875 -0.875 C 10.117188 -0.875 11.460938 -0.882812 12.453125 -0.90625 C 13.441406 -0.925781 14.195312 -0.96875 14.71875 -1.03125 C 15.238281 -1.09375 15.617188 -1.195312 15.859375 -1.34375 C 16.066406 -1.445312 16.242188 -1.640625 16.390625 -1.921875 C 16.535156 -2.203125 16.6875 -2.707031 16.84375 -3.4375 C 17 -4.175781 17.179688 -5.285156 17.390625 -6.765625 C 17.453125 -7.054688 17.59375 -7.242188 17.8125 -7.328125 C 18.03125 -7.410156 18.242188 -7.445312 18.453125 -7.4375 C 18.660156 -7.425781 18.765625 -7.410156 18.765625 -7.390625 C 18.597656 -6.203125 18.445312 -4.984375 18.3125 -3.734375 C 18.175781 -2.492188 18.117188 -1.382812 18.140625 -0.40625 C 18.140625 0.132812 17.941406 0.382812 17.546875 0.34375 C 17.359375 0.34375 17.09375 0.3125 16.75 0.25 C 16.40625 0.1875 15.890625 0.128906 15.203125 0.078125 C 14.523438 0.0234375 13.550781 0 12.28125 0 Z M 12.28125 0 "/></g></g></g><g fill="#000000" fill-opacity="1"><g transform="translate(147.557327, 23.686191)"><g><path d="M 13.46875 -9.171875 C 14.15625 -7.585938 14.9375 -6.171875 15.8125 -4.921875 C 16.695312 -3.679688 17.617188 -2.59375 18.578125 -1.65625 C 19.535156 -0.71875 20.453125 0.0820312 21.328125 0.75 C 21.285156 0.875 21.1875 1.019531 21.03125 1.1875 C 20.875 1.351562 20.585938 1.394531 20.171875 1.3125 C 18.878906 0.789062 17.582031 -0.0078125 16.28125 -1.09375 C 14.988281 -2.175781 13.78125 -3.4375 12.65625 -4.875 C 11.53125 -6.320312 10.550781 -7.863281 9.71875 -9.5 L 8.140625 -9.65625 C 8.015625 -9.695312 7.96875 -9.789062 8 -9.9375 C 8.03125 -10.082031 8.148438 -10.164062 8.359375 -10.1875 L 10.25 -10.25 C 12.164062 -10.351562 13.597656 -10.847656 14.546875 -11.734375 C 15.503906 -12.617188 15.984375 -13.953125 15.984375 -15.734375 C 15.984375 -17.441406 15.472656 -18.75 14.453125 -19.65625 C 13.441406 -20.5625 11.9375 -21.023438 9.9375 -21.046875 L 7.640625 -21.078125 C 7.265625 -21.078125 7.003906 -21 6.859375 -20.84375 C 6.710938 -20.6875 6.640625 -20.390625 6.640625 -19.953125 L 6.640625 -2.9375 C 6.640625 -2.0625 6.765625 -1.507812 7.015625 -1.28125 C 7.265625 -1.050781 7.679688 -0.875 8.265625 -0.75 C 8.640625 -0.664062 8.816406 -0.507812 8.796875 -0.28125 C 8.773438 -0.0507812 8.742188 0.0625 8.703125 0.0625 C 8.515625 0.0625 8.273438 0.0507812 7.984375 0.03125 C 7.691406 0.0078125 7.429688 0 7.203125 0 L 3.09375 0 C 2.882812 0 2.628906 0.0078125 2.328125 0.03125 C 2.023438 0.0507812 1.769531 0.0625 1.5625 0.0625 C 1.539062 0.0625 1.519531 -0.0507812 1.5 -0.28125 C 1.476562 -0.507812 1.65625 -0.664062 2.03125 -0.75 C 2.613281 -0.875 3.023438 -1.050781 3.265625 -1.28125 C 3.515625 -1.507812 3.640625 -2.0625 3.640625 -2.9375 L 3.640625 -18.890625 C 3.640625 -19.765625 3.515625 -20.316406 3.265625 -20.546875 C 3.023438 -20.773438 2.601562 -20.953125 2 -21.078125 C 1.644531 -21.160156 1.476562 -21.3125 1.5 -21.53125 C 1.519531 -21.757812 1.539062 -21.875 1.5625 -21.875 C 1.75 -21.875 2 -21.863281 2.3125 -21.84375 C 2.625 -21.820312 2.882812 -21.8125 3.09375 -21.8125 C 4.5625 -21.832031 5.890625 -21.859375 7.078125 -21.890625 C 8.265625 -21.921875 9.414062 -21.9375 10.53125 -21.9375 C 13.46875 -21.9375 15.671875 -21.410156 17.140625 -20.359375 C 18.617188 -19.316406 19.359375 -17.816406 19.359375 -15.859375 C 19.359375 -13.972656 18.726562 -12.5 17.46875 -11.4375 C 16.207031 -10.375 14.539062 -9.78125 12.46875 -9.65625 L 12.25 -9.59375 L 12.96875 -9.59375 C 13.21875 -9.59375 13.382812 -9.453125 13.46875 -9.171875 Z M 13.46875 -9.171875 "/></g></g></g><g fill="#000000" fill-opacity="1"><g transform="translate(168.962754, 23.686191)"><g><path d="M 3.640625 -2.9375 L 3.640625 -18.890625 C 3.640625 -19.765625 3.515625 -20.316406 3.265625 -20.546875 C 3.023438 -20.773438 2.613281 -20.953125 2.03125 -21.078125 C 1.65625 -21.179688 1.476562 -21.335938 1.5 -21.546875 C 1.519531 -21.765625 1.539062 -21.875 1.5625 -21.875 C 1.769531 -21.875 2.023438 -21.863281 2.328125 -21.84375 C 2.628906 -21.820312 2.882812 -21.8125 3.09375 -21.8125 L 7.203125 -21.8125 C 7.429688 -21.8125 7.691406 -21.820312 7.984375 -21.84375 C 8.273438 -21.863281 8.515625 -21.875 8.703125 -21.875 C 8.742188 -21.875 8.773438 -21.765625 8.796875 -21.546875 C 8.816406 -21.335938 8.640625 -21.179688 8.265625 -21.078125 C 7.679688 -20.953125 7.265625 -20.773438 7.015625 -20.546875 C 6.765625 -20.316406 6.640625 -19.765625 6.640625 -18.890625 L 6.640625 -2.9375 C 6.640625 -2.0625 6.765625 -1.507812 7.015625 -1.28125 C 7.265625 -1.050781 7.679688 -0.875 8.265625 -0.75 C 8.640625 -0.664062 8.816406 -0.507812 8.796875 -0.28125 C 8.773438 -0.0507812 8.742188 0.0625 8.703125 0.0625 C 8.515625 0.0625 8.273438 0.0507812 7.984375 0.03125 C 7.691406 0.0078125 7.429688 0 7.203125 0 L 3.09375 0 C 2.882812 0 2.628906 0.0078125 2.328125 0.03125 C 2.023438 0.0507812 1.769531 0.0625 1.5625 0.0625 C 1.539062 0.0625 1.519531 -0.0507812 1.5 -0.28125 C 1.476562 -0.507812 1.65625 -0.664062 2.03125 -0.75 C 2.613281 -0.875 3.023438 -1.050781 3.265625 -1.28125 C 3.515625 -1.507812 3.640625 -2.0625 3.640625 -2.9375 Z M 3.640625 -2.9375 "/></g></g></g><g fill="#000000" fill-opacity="1"><g transform="translate(179.244832, 23.686191)"><g><path d="M 21.453125 -0.75 C 21.710938 -0.664062 21.832031 -0.507812 21.8125 -0.28125 C 21.800781 -0.0507812 21.785156 0.0625 21.765625 0.0625 C 21.617188 0.0625 21.441406 0.0507812 21.234375 0.03125 C 21.023438 0.0078125 20.835938 0 20.671875 0 L 16.421875 0 C 16.148438 0 15.835938 0.0078125 15.484375 0.03125 C 15.140625 0.0507812 14.851562 0.0625 14.625 0.0625 C 14.601562 0.0625 14.578125 0.00390625 14.546875 -0.109375 C 14.515625 -0.222656 14.535156 -0.34375 14.609375 -0.46875 C 14.679688 -0.59375 14.863281 -0.6875 15.15625 -0.75 C 15.851562 -0.875 16.332031 -1.046875 16.59375 -1.265625 C 16.851562 -1.484375 16.804688 -2 16.453125 -2.8125 L 15.28125 -5.609375 C 15.195312 -5.796875 15.09375 -5.910156 14.96875 -5.953125 C 14.84375 -5.992188 14.664062 -6.015625 14.4375 -6.015625 C 12.875 -6.015625 11.34375 -6.007812 9.84375 -6 C 8.351562 -5.988281 6.816406 -5.992188 5.234375 -6.015625 C 5.023438 -6.015625 4.875 -5.988281 4.78125 -5.9375 C 4.6875 -5.882812 4.585938 -5.773438 4.484375 -5.609375 L 4.484375 -5.640625 L 3.296875 -2.8125 C 2.972656 -2 2.941406 -1.484375 3.203125 -1.265625 C 3.472656 -1.046875 3.984375 -0.875 4.734375 -0.75 C 5.046875 -0.6875 5.242188 -0.59375 5.328125 -0.46875 C 5.410156 -0.34375 5.4375 -0.222656 5.40625 -0.109375 C 5.375 0.00390625 5.335938 0.0625 5.296875 0.0625 C 5.066406 0.0625 4.757812 0.0507812 4.375 0.03125 C 3.988281 0.0078125 3.660156 0 3.390625 0 L 1.34375 0 C 1.195312 0 1.007812 0.0078125 0.78125 0.03125 C 0.550781 0.0507812 0.363281 0.0625 0.21875 0.0625 C 0.195312 0.0625 0.175781 -0.0507812 0.15625 -0.28125 C 0.132812 -0.507812 0.257812 -0.664062 0.53125 -0.75 C 0.820312 -0.832031 1.0625 -0.929688 1.25 -1.046875 C 1.4375 -1.160156 1.613281 -1.347656 1.78125 -1.609375 C 1.945312 -1.867188 2.144531 -2.269531 2.375 -2.8125 L 9.109375 -18.953125 C 9.234375 -19.304688 9.265625 -19.660156 9.203125 -20.015625 L 8.953125 -20.640625 C 8.867188 -20.847656 8.789062 -20.976562 8.71875 -21.03125 C 8.644531 -21.082031 8.546875 -21.128906 8.421875 -21.171875 C 8.148438 -21.253906 8.035156 -21.378906 8.078125 -21.546875 C 8.117188 -21.722656 8.179688 -21.8125 8.265625 -21.8125 L 10.15625 -21.8125 C 10.820312 -21.8125 11.269531 -21.742188 11.5 -21.609375 C 11.726562 -21.484375 11.945312 -21.148438 12.15625 -20.609375 L 19.640625 -2.8125 C 19.867188 -2.269531 20.066406 -1.867188 20.234375 -1.609375 C 20.398438 -1.347656 20.578125 -1.160156 20.765625 -1.046875 C 20.953125 -0.929688 21.179688 -0.832031 21.453125 -0.75 Z M 14.21875 -6.890625 C 14.40625 -6.890625 14.515625 -6.945312 14.546875 -7.0625 C 14.578125 -7.175781 14.570312 -7.285156 14.53125 -7.390625 L 9.84375 -18.515625 L 5.234375 -7.421875 C 5.085938 -7.066406 5.191406 -6.890625 5.546875 -6.890625 Z M 14.21875 -6.890625 "/></g></g></g><g fill="#000000" fill-opacity="1"><g transform="translate(201.211096, 23.686191)"><g/></g></g><g fill="#000000" fill-opacity="1"><g transform="translate(208.25276, 23.686191)"><g><path d="M 11.90625 0 L 7.828125 0 C 7.617188 0 7.359375 0.0078125 7.046875 0.03125 C 6.734375 0.0507812 6.484375 0.0625 6.296875 0.0625 C 6.273438 0.0625 6.253906 -0.0507812 6.234375 -0.28125 C 6.210938 -0.507812 6.378906 -0.664062 6.734375 -0.75 C 7.335938 -0.875 7.757812 -1.050781 8 -1.28125 C 8.238281 -1.507812 8.359375 -2.0625 8.359375 -2.9375 L 8.359375 -8.140625 C 8.359375 -8.453125 8.273438 -8.773438 8.109375 -9.109375 L 2.6875 -19.078125 C 2.414062 -19.597656 2.179688 -19.988281 1.984375 -20.25 C 1.785156 -20.507812 1.582031 -20.695312 1.375 -20.8125 C 1.164062 -20.925781 0.90625 -21.015625 0.59375 -21.078125 C 0.300781 -21.179688 0.164062 -21.34375 0.1875 -21.5625 C 0.207031 -21.789062 0.226562 -21.90625 0.25 -21.90625 C 0.394531 -21.882812 0.585938 -21.867188 0.828125 -21.859375 C 1.066406 -21.847656 1.28125 -21.832031 1.46875 -21.8125 L 5.796875 -21.8125 L 7.609375 -21.90625 C 7.628906 -21.90625 7.65625 -21.847656 7.6875 -21.734375 C 7.71875 -21.628906 7.695312 -21.507812 7.625 -21.375 C 7.550781 -21.238281 7.367188 -21.140625 7.078125 -21.078125 C 6.367188 -20.972656 5.894531 -20.8125 5.65625 -20.59375 C 5.414062 -20.375 5.503906 -19.867188 5.921875 -19.078125 L 10.71875 -10.21875 C 10.863281 -9.96875 11.007812 -9.96875 11.15625 -10.21875 L 15.984375 -19.078125 C 16.398438 -19.867188 16.488281 -20.367188 16.25 -20.578125 C 16.007812 -20.785156 15.53125 -20.953125 14.8125 -21.078125 C 14.519531 -21.140625 14.335938 -21.238281 14.265625 -21.375 C 14.191406 -21.507812 14.171875 -21.625 14.203125 -21.71875 C 14.234375 -21.820312 14.257812 -21.875 14.28125 -21.875 C 14.507812 -21.875 14.800781 -21.863281 15.15625 -21.84375 C 15.519531 -21.820312 15.835938 -21.8125 16.109375 -21.8125 L 18.203125 -21.8125 C 18.367188 -21.8125 18.570312 -21.820312 18.8125 -21.84375 C 19.050781 -21.863281 19.242188 -21.875 19.390625 -21.875 C 19.429688 -21.875 19.460938 -21.765625 19.484375 -21.546875 C 19.503906 -21.335938 19.367188 -21.179688 19.078125 -21.078125 C 18.765625 -20.992188 18.503906 -20.894531 18.296875 -20.78125 C 18.085938 -20.664062 17.882812 -20.484375 17.6875 -20.234375 C 17.488281 -19.984375 17.242188 -19.597656 16.953125 -19.078125 L 11.59375 -9.140625 C 11.507812 -8.992188 11.445312 -8.828125 11.40625 -8.640625 C 11.363281 -8.453125 11.34375 -8.285156 11.34375 -8.140625 L 11.375 -2.9375 C 11.375 -2.0625 11.5 -1.507812 11.75 -1.28125 C 12 -1.050781 12.414062 -0.875 13 -0.75 C 13.351562 -0.664062 13.523438 -0.507812 13.515625 -0.28125 C 13.503906 -0.0507812 13.476562 0.0625 13.4375 0.0625 C 13.25 0.0625 13.003906 0.0507812 12.703125 0.03125 C 12.398438 0.0078125 12.132812 0 11.90625 0 Z M 11.90625 0 "/></g></g></g><g fill="#000000" fill-opacity="1"><g transform="translate(227.882194, 23.686191)"><g/></g></g><g fill="#000000" fill-opacity="1"><g transform="translate(234.923858, 23.686191)"><g><path d="M 9.96875 -9.078125 L 8.046875 -9.140625 C 7.898438 -9.296875 7.832031 -9.46875 7.84375 -9.65625 C 7.851562 -9.84375 7.960938 -9.945312 8.171875 -9.96875 L 9.84375 -9.9375 C 13.769531 -9.914062 15.734375 -11.675781 15.734375 -15.21875 C 15.734375 -16.332031 15.503906 -17.328125 15.046875 -18.203125 C 14.597656 -19.078125 13.957031 -19.769531 13.125 -20.28125 C 12.289062 -20.789062 11.289062 -21.046875 10.125 -21.046875 L 7.671875 -21.078125 C 7.253906 -21.078125 6.976562 -21.003906 6.84375 -20.859375 C 6.707031 -20.710938 6.640625 -20.390625 6.640625 -19.890625 L 6.640625 -2.9375 C 6.640625 -2.0625 6.800781 -1.507812 7.125 -1.28125 C 7.445312 -1.050781 7.992188 -0.875 8.765625 -0.75 C 9.097656 -0.6875 9.296875 -0.59375 9.359375 -0.46875 C 9.429688 -0.34375 9.453125 -0.222656 9.421875 -0.109375 C 9.390625 0.00390625 9.363281 0.0625 9.34375 0.0625 C 9.101562 0.0625 8.789062 0.0507812 8.40625 0.03125 C 8.019531 0.0078125 7.679688 0 7.390625 0 L 3.09375 0 C 2.882812 0 2.628906 0.0078125 2.328125 0.03125 C 2.023438 0.0507812 1.769531 0.0625 1.5625 0.0625 C 1.539062 0.0625 1.519531 -0.0507812 1.5 -0.28125 C 1.476562 -0.507812 1.65625 -0.664062 2.03125 -0.75 C 2.613281 -0.875 3.023438 -1.050781 3.265625 -1.28125 C 3.515625 -1.507812 3.640625 -2.0625 3.640625 -2.9375 L 3.640625 -18.890625 C 3.640625 -19.765625 3.515625 -20.316406 3.265625 -20.546875 C 3.023438 -20.773438 2.601562 -20.953125 2 -21.078125 C 1.644531 -21.160156 1.476562 -21.3125 1.5 -21.53125 C 1.519531 -21.757812 1.539062 -21.875 1.5625 -21.875 C 1.75 -21.875 2 -21.863281 2.3125 -21.84375 C 2.625 -21.820312 2.882812 -21.8125 3.09375 -21.8125 C 4.582031 -21.832031 5.929688 -21.859375 7.140625 -21.890625 C 8.347656 -21.921875 9.507812 -21.9375 10.625 -21.9375 C 13.289062 -21.9375 15.347656 -21.359375 16.796875 -20.203125 C 18.253906 -19.054688 18.984375 -17.457031 18.984375 -15.40625 C 18.984375 -14.09375 18.671875 -12.941406 18.046875 -11.953125 C 17.421875 -10.960938 16.445312 -10.207031 15.125 -9.6875 C 13.8125 -9.175781 12.09375 -8.972656 9.96875 -9.078125 Z M 9.96875 -9.078125 "/></g></g></g><g fill="#000000" fill-opacity="1"><g transform="translate(254.802554, 23.686191)"><g><path d="M 21.453125 -0.75 C 21.710938 -0.664062 21.832031 -0.507812 21.8125 -0.28125 C 21.800781 -0.0507812 21.785156 0.0625 21.765625 0.0625 C 21.617188 0.0625 21.441406 0.0507812 21.234375 0.03125 C 21.023438 0.0078125 20.835938 0 20.671875 0 L 16.421875 0 C 16.148438 0 15.835938 0.0078125 15.484375 0.03125 C 15.140625 0.0507812 14.851562 0.0625 14.625 0.0625 C 14.601562 0.0625 14.578125 0.00390625 14.546875 -0.109375 C 14.515625 -0.222656 14.535156 -0.34375 14.609375 -0.46875 C 14.679688 -0.59375 14.863281 -0.6875 15.15625 -0.75 C 15.851562 -0.875 16.332031 -1.046875 16.59375 -1.265625 C 16.851562 -1.484375 16.804688 -2 16.453125 -2.8125 L 15.28125 -5.609375 C 15.195312 -5.796875 15.09375 -5.910156 14.96875 -5.953125 C 14.84375 -5.992188 14.664062 -6.015625 14.4375 -6.015625 C 12.875 -6.015625 11.34375 -6.007812 9.84375 -6 C 8.351562 -5.988281 6.816406 -5.992188 5.234375 -6.015625 C 5.023438 -6.015625 4.875 -5.988281 4.78125 -5.9375 C 4.6875 -5.882812 4.585938 -5.773438 4.484375 -5.609375 L 4.484375 -5.640625 L 3.296875 -2.8125 C 2.972656 -2 2.941406 -1.484375 3.203125 -1.265625 C 3.472656 -1.046875 3.984375 -0.875 4.734375 -0.75 C 5.046875 -0.6875 5.242188 -0.59375 5.328125 -0.46875 C 5.410156 -0.34375 5.4375 -0.222656 5.40625 -0.109375 C 5.375 0.00390625 5.335938 0.0625 5.296875 0.0625 C 5.066406 0.0625 4.757812 0.0507812 4.375 0.03125 C 3.988281 0.0078125 3.660156 0 3.390625 0 L 1.34375 0 C 1.195312 0 1.007812 0.0078125 0.78125 0.03125 C 0.550781 0.0507812 0.363281 0.0625 0.21875 0.0625 C 0.195312 0.0625 0.175781 -0.0507812 0.15625 -0.28125 C 0.132812 -0.507812 0.257812 -0.664062 0.53125 -0.75 C 0.820312 -0.832031 1.0625 -0.929688 1.25 -1.046875 C 1.4375 -1.160156 1.613281 -1.347656 1.78125 -1.609375 C 1.945312 -1.867188 2.144531 -2.269531 2.375 -2.8125 L 9.109375 -18.953125 C 9.234375 -19.304688 9.265625 -19.660156 9.203125 -20.015625 L 8.953125 -20.640625 C 8.867188 -20.847656 8.789062 -20.976562 8.71875 -21.03125 C 8.644531 -21.082031 8.546875 -21.128906 8.421875 -21.171875 C 8.148438 -21.253906 8.035156 -21.378906 8.078125 -21.546875 C 8.117188 -21.722656 8.179688 -21.8125 8.265625 -21.8125 L 10.15625 -21.8125 C 10.820312 -21.8125 11.269531 -21.742188 11.5 -21.609375 C 11.726562 -21.484375 11.945312 -21.148438 12.15625 -20.609375 L 19.640625 -2.8125 C 19.867188 -2.269531 20.066406 -1.867188 20.234375 -1.609375 C 20.398438 -1.347656 20.578125 -1.160156 20.765625 -1.046875 C 20.953125 -0.929688 21.179688 -0.832031 21.453125 -0.75 Z M 14.21875 -6.890625 C 14.40625 -6.890625 14.515625 -6.945312 14.546875 -7.0625 C 14.578125 -7.175781 14.570312 -7.285156 14.53125 -7.390625 L 9.84375 -18.515625 L 5.234375 -7.421875 C 5.085938 -7.066406 5.191406 -6.890625 5.546875 -6.890625 Z M 14.21875 -6.890625 "/></g></g></g><g fill="#000000" fill-opacity="1"><g transform="translate(276.768819, 23.686191)"><g><path d="M 22.875 -21.875 C 22.914062 -21.875 22.945312 -21.765625 22.96875 -21.546875 C 22.988281 -21.335938 22.8125 -21.179688 22.4375 -21.078125 C 21.863281 -20.953125 21.453125 -20.773438 21.203125 -20.546875 C 20.953125 -20.316406 20.828125 -19.765625 20.828125 -18.890625 L 20.796875 -0.21875 C 20.796875 -0.175781 20.757812 -0.113281 20.6875 -0.03125 C 20.613281 0.0507812 20.492188 0.09375 20.328125 0.09375 C 20.097656 0.09375 19.898438 0 19.734375 -0.1875 L 4.859375 -19.296875 C 4.796875 -19.378906 4.722656 -19.421875 4.640625 -19.421875 C 4.578125 -19.421875 4.546875 -19.367188 4.546875 -19.265625 L 4.515625 -2.9375 C 4.515625 -2.039062 4.644531 -1.476562 4.90625 -1.25 C 5.164062 -1.019531 5.585938 -0.851562 6.171875 -0.75 C 6.523438 -0.664062 6.691406 -0.503906 6.671875 -0.265625 C 6.648438 -0.0234375 6.628906 0.09375 6.609375 0.09375 L 5.078125 0 L 3.09375 0 L 1.59375 0.09375 C 1.570312 0.09375 1.546875 -0.0234375 1.515625 -0.265625 C 1.484375 -0.503906 1.65625 -0.664062 2.03125 -0.75 C 2.613281 -0.851562 3.023438 -1.019531 3.265625 -1.25 C 3.515625 -1.476562 3.640625 -2.039062 3.640625 -2.9375 L 3.671875 -20.109375 C 3.484375 -20.441406 3.269531 -20.664062 3.03125 -20.78125 C 2.800781 -20.894531 2.476562 -20.992188 2.0625 -21.078125 C 1.707031 -21.179688 1.546875 -21.34375 1.578125 -21.5625 C 1.609375 -21.789062 1.632812 -21.90625 1.65625 -21.90625 C 1.820312 -21.90625 2.050781 -21.894531 2.34375 -21.875 C 2.632812 -21.851562 2.882812 -21.832031 3.09375 -21.8125 L 6.171875 -21.8125 C 6.546875 -21.8125 6.828125 -21.691406 7.015625 -21.453125 L 19.515625 -5.015625 C 19.597656 -4.867188 19.691406 -4.796875 19.796875 -4.796875 C 19.878906 -4.796875 19.921875 -4.878906 19.921875 -5.046875 L 19.921875 -18.890625 C 19.921875 -19.765625 19.800781 -20.316406 19.5625 -20.546875 C 19.320312 -20.773438 18.898438 -20.953125 18.296875 -21.078125 C 17.921875 -21.179688 17.75 -21.335938 17.78125 -21.546875 C 17.8125 -21.765625 17.835938 -21.875 17.859375 -21.875 C 18.046875 -21.875 18.289062 -21.863281 18.59375 -21.84375 C 18.894531 -21.820312 19.148438 -21.8125 19.359375 -21.8125 L 21.359375 -21.8125 C 21.585938 -21.8125 21.847656 -21.820312 22.140625 -21.84375 C 22.441406 -21.863281 22.6875 -21.875 22.875 -21.875 Z M 22.875 -21.875 "/></g></g></g><g fill="#000000" fill-opacity="1"><g transform="translate(300.47992, 23.686191)"><g><path d="M 21.453125 -0.75 C 21.710938 -0.664062 21.832031 -0.507812 21.8125 -0.28125 C 21.800781 -0.0507812 21.785156 0.0625 21.765625 0.0625 C 21.617188 0.0625 21.441406 0.0507812 21.234375 0.03125 C 21.023438 0.0078125 20.835938 0 20.671875 0 L 16.421875 0 C 16.148438 0 15.835938 0.0078125 15.484375 0.03125 C 15.140625 0.0507812 14.851562 0.0625 14.625 0.0625 C 14.601562 0.0625 14.578125 0.00390625 14.546875 -0.109375 C 14.515625 -0.222656 14.535156 -0.34375 14.609375 -0.46875 C 14.679688 -0.59375 14.863281 -0.6875 15.15625 -0.75 C 15.851562 -0.875 16.332031 -1.046875 16.59375 -1.265625 C 16.851562 -1.484375 16.804688 -2 16.453125 -2.8125 L 15.28125 -5.609375 C 15.195312 -5.796875 15.09375 -5.910156 14.96875 -5.953125 C 14.84375 -5.992188 14.664062 -6.015625 14.4375 -6.015625 C 12.875 -6.015625 11.34375 -6.007812 9.84375 -6 C 8.351562 -5.988281 6.816406 -5.992188 5.234375 -6.015625 C 5.023438 -6.015625 4.875 -5.988281 4.78125 -5.9375 C 4.6875 -5.882812 4.585938 -5.773438 4.484375 -5.609375 L 4.484375 -5.640625 L 3.296875 -2.8125 C 2.972656 -2 2.941406 -1.484375 3.203125 -1.265625 C 3.472656 -1.046875 3.984375 -0.875 4.734375 -0.75 C 5.046875 -0.6875 5.242188 -0.59375 5.328125 -0.46875 C 5.410156 -0.34375 5.4375 -0.222656 5.40625 -0.109375 C 5.375 0.00390625 5.335938 0.0625 5.296875 0.0625 C 5.066406 0.0625 4.757812 0.0507812 4.375 0.03125 C 3.988281 0.0078125 3.660156 0 3.390625 0 L 1.34375 0 C 1.195312 0 1.007812 0.0078125 0.78125 0.03125 C 0.550781 0.0507812 0.363281 0.0625 0.21875 0.0625 C 0.195312 0.0625 0.175781 -0.0507812 0.15625 -0.28125 C 0.132812 -0.507812 0.257812 -0.664062 0.53125 -0.75 C 0.820312 -0.832031 1.0625 -0.929688 1.25 -1.046875 C 1.4375 -1.160156 1.613281 -1.347656 1.78125 -1.609375 C 1.945312 -1.867188 2.144531 -2.269531 2.375 -2.8125 L 9.109375 -18.953125 C 9.234375 -19.304688 9.265625 -19.660156 9.203125 -20.015625 L 8.953125 -20.640625 C 8.867188 -20.847656 8.789062 -20.976562 8.71875 -21.03125 C 8.644531 -21.082031 8.546875 -21.128906 8.421875 -21.171875 C 8.148438 -21.253906 8.035156 -21.378906 8.078125 -21.546875 C 8.117188 -21.722656 8.179688 -21.8125 8.265625 -21.8125 L 10.15625 -21.8125 C 10.820312 -21.8125 11.269531 -21.742188 11.5 -21.609375 C 11.726562 -21.484375 11.945312 -21.148438 12.15625 -20.609375 L 19.640625 -2.8125 C 19.867188 -2.269531 20.066406 -1.867188 20.234375 -1.609375 C 20.398438 -1.347656 20.578125 -1.160156 20.765625 -1.046875 C 20.953125 -0.929688 21.179688 -0.832031 21.453125 -0.75 Z M 14.21875 -6.890625 C 14.40625 -6.890625 14.515625 -6.945312 14.546875 -7.0625 C 14.578125 -7.175781 14.570312 -7.285156 14.53125 -7.390625 L 9.84375 -18.515625 L 5.234375 -7.421875 C 5.085938 -7.066406 5.191406 -6.890625 5.546875 -6.890625 Z M 14.21875 -6.890625 "/></g></g></g><g fill="#000000" fill-opacity="1"><g transform="translate(322.446203, 23.686191)"><g><path d="M 9.5 0.15625 C 8.550781 0.15625 7.585938 0.132812 6.609375 0.09375 C 5.628906 0.0507812 4.640625 0.03125 3.640625 0.03125 C 3.253906 0.03125 2.882812 0.03125 2.53125 0.03125 C 2.175781 0.03125 1.851562 0.0507812 1.5625 0.09375 C 1.539062 0.09375 1.519531 -0.0195312 1.5 -0.25 C 1.476562 -0.476562 1.65625 -0.632812 2.03125 -0.71875 C 2.632812 -0.84375 3.050781 -1.019531 3.28125 -1.25 C 3.519531 -1.476562 3.640625 -2.039062 3.640625 -2.9375 L 3.640625 -18.890625 C 3.640625 -19.765625 3.515625 -20.316406 3.265625 -20.546875 C 3.023438 -20.773438 2.601562 -20.941406 2 -21.046875 C 1.644531 -21.148438 1.476562 -21.3125 1.5 -21.53125 C 1.519531 -21.757812 1.539062 -21.875 1.5625 -21.875 C 1.75 -21.851562 2 -21.835938 2.3125 -21.828125 C 2.625 -21.816406 2.882812 -21.8125 3.09375 -21.8125 C 4.039062 -21.832031 5.023438 -21.859375 6.046875 -21.890625 C 7.066406 -21.921875 7.867188 -21.9375 8.453125 -21.9375 C 12.734375 -21.9375 15.992188 -21.007812 18.234375 -19.15625 C 20.484375 -17.3125 21.609375 -14.65625 21.609375 -11.1875 C 21.609375 -9.007812 21.144531 -7.0625 20.21875 -5.34375 C 19.289062 -3.632812 17.925781 -2.289062 16.125 -1.3125 C 14.332031 -0.332031 12.125 0.15625 9.5 0.15625 Z M 9.046875 -0.78125 C 11.203125 -0.78125 12.96875 -1.179688 14.34375 -1.984375 C 15.726562 -2.796875 16.753906 -3.9375 17.421875 -5.40625 C 18.085938 -6.875 18.421875 -8.582031 18.421875 -10.53125 C 18.421875 -12.65625 18.050781 -14.503906 17.3125 -16.078125 C 16.570312 -17.660156 15.421875 -18.890625 13.859375 -19.765625 C 12.304688 -20.640625 10.285156 -21.078125 7.796875 -21.078125 C 7.273438 -21.078125 6.953125 -20.992188 6.828125 -20.828125 C 6.703125 -20.660156 6.640625 -20.378906 6.640625 -19.984375 L 6.640625 -1.9375 C 6.640625 -1.582031 6.691406 -1.320312 6.796875 -1.15625 C 6.898438 -0.988281 7.125 -0.882812 7.46875 -0.84375 C 7.8125 -0.800781 8.335938 -0.78125 9.046875 -0.78125 Z M 9.046875 -0.78125 "/></g></g></g><g fill="#000000" fill-opacity="1"><g transform="translate(345.347206, 23.686191)"><g><path d="M 12.28125 0 L 3.09375 0 C 2.882812 0 2.628906 0.0078125 2.328125 0.03125 C 2.023438 0.0507812 1.769531 0.0625 1.5625 0.0625 C 1.539062 0.0625 1.519531 -0.0507812 1.5 -0.28125 C 1.476562 -0.507812 1.65625 -0.664062 2.03125 -0.75 C 2.613281 -0.875 3.023438 -1.050781 3.265625 -1.28125 C 3.515625 -1.507812 3.640625 -2.0625 3.640625 -2.9375 L 3.640625 -18.890625 C 3.640625 -19.765625 3.515625 -20.316406 3.265625 -20.546875 C 3.023438 -20.773438 2.613281 -20.953125 2.03125 -21.078125 C 1.65625 -21.179688 1.476562 -21.335938 1.5 -21.546875 C 1.519531 -21.765625 1.539062 -21.875 1.5625 -21.875 C 1.769531 -21.875 2.023438 -21.863281 2.328125 -21.84375 C 2.628906 -21.820312 2.882812 -21.8125 3.09375 -21.8125 L 11.9375 -21.8125 C 13.332031 -21.8125 14.375 -21.875 15.0625 -22 C 15.757812 -22.125 16.253906 -22.175781 16.546875 -22.15625 C 16.710938 -22.15625 16.847656 -22.113281 16.953125 -22.03125 C 17.054688 -21.945312 17.109375 -21.765625 17.109375 -21.484375 C 17.085938 -20.753906 17.125 -19.8125 17.21875 -18.65625 C 17.3125 -17.5 17.484375 -16.09375 17.734375 -14.4375 C 17.734375 -14.4375 17.632812 -14.4375 17.4375 -14.4375 C 17.238281 -14.4375 17.035156 -14.484375 16.828125 -14.578125 C 16.617188 -14.671875 16.492188 -14.851562 16.453125 -15.125 C 16.203125 -16.90625 15.988281 -18.171875 15.8125 -18.921875 C 15.644531 -19.671875 15.425781 -20.160156 15.15625 -20.390625 C 14.945312 -20.578125 14.59375 -20.707031 14.09375 -20.78125 C 13.59375 -20.851562 12.816406 -20.898438 11.765625 -20.921875 C 10.710938 -20.941406 9.253906 -20.953125 7.390625 -20.953125 C 6.890625 -20.953125 6.640625 -20.660156 6.640625 -20.078125 L 6.640625 -12.78125 C 6.640625 -12.613281 6.679688 -12.441406 6.765625 -12.265625 C 6.847656 -12.085938 7.015625 -12 7.265625 -12 C 7.367188 -12 7.613281 -12 8 -12 C 8.382812 -12 8.828125 -12.007812 9.328125 -12.03125 C 9.835938 -12.050781 10.3125 -12.082031 10.75 -12.125 C 11 -12.144531 11.203125 -12.207031 11.359375 -12.3125 C 11.515625 -12.414062 11.65625 -12.628906 11.78125 -12.953125 C 11.90625 -13.273438 12.039062 -13.769531 12.1875 -14.4375 C 12.269531 -14.726562 12.382812 -14.898438 12.53125 -14.953125 C 12.675781 -15.003906 12.816406 -15.007812 12.953125 -14.96875 C 13.085938 -14.925781 13.15625 -14.90625 13.15625 -14.90625 C 12.988281 -13.820312 12.9375 -12.664062 13 -11.4375 C 13.0625 -10.207031 13.164062 -9.078125 13.3125 -8.046875 C 13.3125 -8.046875 13.179688 -8.039062 12.921875 -8.03125 C 12.660156 -8.019531 12.488281 -8.148438 12.40625 -8.421875 C 12.195312 -9.203125 12.023438 -9.773438 11.890625 -10.140625 C 11.753906 -10.503906 11.609375 -10.738281 11.453125 -10.84375 C 11.296875 -10.945312 11.070312 -11 10.78125 -11 C 10.40625 -11.039062 9.972656 -11.066406 9.484375 -11.078125 C 9.003906 -11.085938 8.554688 -11.097656 8.140625 -11.109375 C 7.722656 -11.117188 7.429688 -11.125 7.265625 -11.125 C 7.015625 -11.125 6.847656 -11.023438 6.765625 -10.828125 C 6.679688 -10.628906 6.640625 -10.445312 6.640625 -10.28125 L 6.640625 -1.90625 C 6.640625 -1.40625 6.757812 -1.109375 7 -1.015625 C 7.238281 -0.921875 7.710938 -0.875 8.421875 -0.875 C 10.117188 -0.875 11.460938 -0.882812 12.453125 -0.90625 C 13.441406 -0.925781 14.195312 -0.96875 14.71875 -1.03125 C 15.238281 -1.09375 15.617188 -1.195312 15.859375 -1.34375 C 16.066406 -1.445312 16.242188 -1.640625 16.390625 -1.921875 C 16.535156 -2.203125 16.6875 -2.707031 16.84375 -3.4375 C 17 -4.175781 17.179688 -5.285156 17.390625 -6.765625 C 17.453125 -7.054688 17.59375 -7.242188 17.8125 -7.328125 C 18.03125 -7.410156 18.242188 -7.445312 18.453125 -7.4375 C 18.660156 -7.425781 18.765625 -7.410156 18.765625 -7.390625 C 18.597656 -6.203125 18.445312 -4.984375 18.3125 -3.734375 C 18.175781 -2.492188 18.117188 -1.382812 18.140625 -0.40625 C 18.140625 0.132812 17.941406 0.382812 17.546875 0.34375 C 17.359375 0.34375 17.09375 0.3125 16.75 0.25 C 16.40625 0.1875 15.890625 0.128906 15.203125 0.078125 C 14.523438 0.0234375 13.550781 0 12.28125 0 Z M 12.28125 0 "/></g></g></g><g fill="#000000" fill-opacity="1"><g transform="translate(365.350524, 23.686191)"><g><path d="M 13.46875 -9.171875 C 14.15625 -7.585938 14.9375 -6.171875 15.8125 -4.921875 C 16.695312 -3.679688 17.617188 -2.59375 18.578125 -1.65625 C 19.535156 -0.71875 20.453125 0.0820312 21.328125 0.75 C 21.285156 0.875 21.1875 1.019531 21.03125 1.1875 C 20.875 1.351562 20.585938 1.394531 20.171875 1.3125 C 18.878906 0.789062 17.582031 -0.0078125 16.28125 -1.09375 C 14.988281 -2.175781 13.78125 -3.4375 12.65625 -4.875 C 11.53125 -6.320312 10.550781 -7.863281 9.71875 -9.5 L 8.140625 -9.65625 C 8.015625 -9.695312 7.96875 -9.789062 8 -9.9375 C 8.03125 -10.082031 8.148438 -10.164062 8.359375 -10.1875 L 10.25 -10.25 C 12.164062 -10.351562 13.597656 -10.847656 14.546875 -11.734375 C 15.503906 -12.617188 15.984375 -13.953125 15.984375 -15.734375 C 15.984375 -17.441406 15.472656 -18.75 14.453125 -19.65625 C 13.441406 -20.5625 11.9375 -21.023438 9.9375 -21.046875 L 7.640625 -21.078125 C 7.265625 -21.078125 7.003906 -21 6.859375 -20.84375 C 6.710938 -20.6875 6.640625 -20.390625 6.640625 -19.953125 L 6.640625 -2.9375 C 6.640625 -2.0625 6.765625 -1.507812 7.015625 -1.28125 C 7.265625 -1.050781 7.679688 -0.875 8.265625 -0.75 C 8.640625 -0.664062 8.816406 -0.507812 8.796875 -0.28125 C 8.773438 -0.0507812 8.742188 0.0625 8.703125 0.0625 C 8.515625 0.0625 8.273438 0.0507812 7.984375 0.03125 C 7.691406 0.0078125 7.429688 0 7.203125 0 L 3.09375 0 C 2.882812 0 2.628906 0.0078125 2.328125 0.03125 C 2.023438 0.0507812 1.769531 0.0625 1.5625 0.0625 C 1.539062 0.0625 1.519531 -0.0507812 1.5 -0.28125 C 1.476562 -0.507812 1.65625 -0.664062 2.03125 -0.75 C 2.613281 -0.875 3.023438 -1.050781 3.265625 -1.28125 C 3.515625 -1.507812 3.640625 -2.0625 3.640625 -2.9375 L 3.640625 -18.890625 C 3.640625 -19.765625 3.515625 -20.316406 3.265625 -20.546875 C 3.023438 -20.773438 2.601562 -20.953125 2 -21.078125 C 1.644531 -21.160156 1.476562 -21.3125 1.5 -21.53125 C 1.519531 -21.757812 1.539062 -21.875 1.5625 -21.875 C 1.75 -21.875 2 -21.863281 2.3125 -21.84375 C 2.625 -21.820312 2.882812 -21.8125 3.09375 -21.8125 C 4.5625 -21.832031 5.890625 -21.859375 7.078125 -21.890625 C 8.265625 -21.921875 9.414062 -21.9375 10.53125 -21.9375 C 13.46875 -21.9375 15.671875 -21.410156 17.140625 -20.359375 C 18.617188 -19.316406 19.359375 -17.816406 19.359375 -15.859375 C 19.359375 -13.972656 18.726562 -12.5 17.46875 -11.4375 C 16.207031 -10.375 14.539062 -9.78125 12.46875 -9.65625 L 12.25 -9.59375 L 12.96875 -9.59375 C 13.21875 -9.59375 13.382812 -9.453125 13.46875 -9.171875 Z M 13.46875 -9.171875 "/></g></g></g><g fill="#000000" fill-opacity="1"><g transform="translate(386.755916, 23.686191)"><g><path d="M 3.640625 -2.9375 L 3.640625 -18.890625 C 3.640625 -19.765625 3.515625 -20.316406 3.265625 -20.546875 C 3.023438 -20.773438 2.613281 -20.953125 2.03125 -21.078125 C 1.65625 -21.179688 1.476562 -21.335938 1.5 -21.546875 C 1.519531 -21.765625 1.539062 -21.875 1.5625 -21.875 C 1.769531 -21.875 2.023438 -21.863281 2.328125 -21.84375 C 2.628906 -21.820312 2.882812 -21.8125 3.09375 -21.8125 L 7.203125 -21.8125 C 7.429688 -21.8125 7.691406 -21.820312 7.984375 -21.84375 C 8.273438 -21.863281 8.515625 -21.875 8.703125 -21.875 C 8.742188 -21.875 8.773438 -21.765625 8.796875 -21.546875 C 8.816406 -21.335938 8.640625 -21.179688 8.265625 -21.078125 C 7.679688 -20.953125 7.265625 -20.773438 7.015625 -20.546875 C 6.765625 -20.316406 6.640625 -19.765625 6.640625 -18.890625 L 6.640625 -2.9375 C 6.640625 -2.0625 6.765625 -1.507812 7.015625 -1.28125 C 7.265625 -1.050781 7.679688 -0.875 8.265625 -0.75 C 8.640625 -0.664062 8.816406 -0.507812 8.796875 -0.28125 C 8.773438 -0.0507812 8.742188 0.0625 8.703125 0.0625 C 8.515625 0.0625 8.273438 0.0507812 7.984375 0.03125 C 7.691406 0.0078125 7.429688 0 7.203125 0 L 3.09375 0 C 2.882812 0 2.628906 0.0078125 2.328125 0.03125 C 2.023438 0.0507812 1.769531 0.0625 1.5625 0.0625 C 1.539062 0.0625 1.519531 -0.0507812 1.5 -0.28125 C 1.476562 -0.507812 1.65625 -0.664062 2.03125 -0.75 C 2.613281 -0.875 3.023438 -1.050781 3.265625 -1.28125 C 3.515625 -1.507812 3.640625 -2.0625 3.640625 -2.9375 Z M 3.640625 -2.9375 "/></g></g></g><g fill="#000000" fill-opacity="1"><g transform="translate(397.038012, 23.686191)"><g><path d="M 21.453125 -0.75 C 21.710938 -0.664062 21.832031 -0.507812 21.8125 -0.28125 C 21.800781 -0.0507812 21.785156 0.0625 21.765625 0.0625 C 21.617188 0.0625 21.441406 0.0507812 21.234375 0.03125 C 21.023438 0.0078125 20.835938 0 20.671875 0 L 16.421875 0 C 16.148438 0 15.835938 0.0078125 15.484375 0.03125 C 15.140625 0.0507812 14.851562 0.0625 14.625 0.0625 C 14.601562 0.0625 14.578125 0.00390625 14.546875 -0.109375 C 14.515625 -0.222656 14.535156 -0.34375 14.609375 -0.46875 C 14.679688 -0.59375 14.863281 -0.6875 15.15625 -0.75 C 15.851562 -0.875 16.332031 -1.046875 16.59375 -1.265625 C 16.851562 -1.484375 16.804688 -2 16.453125 -2.8125 L 15.28125 -5.609375 C 15.195312 -5.796875 15.09375 -5.910156 14.96875 -5.953125 C 14.84375 -5.992188 14.664062 -6.015625 14.4375 -6.015625 C 12.875 -6.015625 11.34375 -6.007812 9.84375 -6 C 8.351562 -5.988281 6.816406 -5.992188 5.234375 -6.015625 C 5.023438 -6.015625 4.875 -5.988281 4.78125 -5.9375 C 4.6875 -5.882812 4.585938 -5.773438 4.484375 -5.609375 L 4.484375 -5.640625 L 3.296875 -2.8125 C 2.972656 -2 2.941406 -1.484375 3.203125 -1.265625 C 3.472656 -1.046875 3.984375 -0.875 4.734375 -0.75 C 5.046875 -0.6875 5.242188 -0.59375 5.328125 -0.46875 C 5.410156 -0.34375 5.4375 -0.222656 5.40625 -0.109375 C 5.375 0.00390625 5.335938 0.0625 5.296875 0.0625 C 5.066406 0.0625 4.757812 0.0507812 4.375 0.03125 C 3.988281 0.0078125 3.660156 0 3.390625 0 L 1.34375 0 C 1.195312 0 1.007812 0.0078125 0.78125 0.03125 C 0.550781 0.0507812 0.363281 0.0625 0.21875 0.0625 C 0.195312 0.0625 0.175781 -0.0507812 0.15625 -0.28125 C 0.132812 -0.507812 0.257812 -0.664062 0.53125 -0.75 C 0.820312 -0.832031 1.0625 -0.929688 1.25 -1.046875 C 1.4375 -1.160156 1.613281 -1.347656 1.78125 -1.609375 C 1.945312 -1.867188 2.144531 -2.269531 2.375 -2.8125 L 9.109375 -18.953125 C 9.234375 -19.304688 9.265625 -19.660156 9.203125 -20.015625 L 8.953125 -20.640625 C 8.867188 -20.847656 8.789062 -20.976562 8.71875 -21.03125 C 8.644531 -21.082031 8.546875 -21.128906 8.421875 -21.171875 C 8.148438 -21.253906 8.035156 -21.378906 8.078125 -21.546875 C 8.117188 -21.722656 8.179688 -21.8125 8.265625 -21.8125 L 10.15625 -21.8125 C 10.820312 -21.8125 11.269531 -21.742188 11.5 -21.609375 C 11.726562 -21.484375 11.945312 -21.148438 12.15625 -20.609375 L 19.640625 -2.8125 C 19.867188 -2.269531 20.066406 -1.867188 20.234375 -1.609375 C 20.398438 -1.347656 20.578125 -1.160156 20.765625 -1.046875 C 20.953125 -0.929688 21.179688 -0.832031 21.453125 -0.75 Z M 14.21875 -6.890625 C 14.40625 -6.890625 14.515625 -6.945312 14.546875 -7.0625 C 14.578125 -7.175781 14.570312 -7.285156 14.53125 -7.390625 L 9.84375 -18.515625 L 5.234375 -7.421875 C 5.085938 -7.066406 5.191406 -6.890625 5.546875 -6.890625 Z M 14.21875 -6.890625 "/></g></g></g></g></g></g><g clip-path="url(#6fa97a509b)"><g transform="matrix(1, 0, 0, 1, 159, 0.000000000000005329)"><g clip-path="url(#5038e2f944)"><g fill="#000000" fill-opacity="1"><g transform="translate(0.384999, 53.743906)"><g><path d="M 40.34375 -19.328125 C 40.644531 -18.003906 40.816406 -16.484375 40.859375 -14.765625 C 40.910156 -13.054688 40.753906 -11.304688 40.390625 -9.515625 C 40.023438 -7.722656 39.347656 -6.066406 38.359375 -4.546875 C 37.378906 -3.035156 35.984375 -1.8125 34.171875 -0.875 C 32.359375 0.0507812 30.054688 0.515625 27.265625 0.515625 C 25.066406 0.515625 23.207031 0.242188 21.6875 -0.296875 C 20.164062 -0.835938 18.851562 -1.5 17.75 -2.28125 C 16.644531 -3.0625 15.664062 -3.832031 14.8125 -4.59375 C 13.957031 -5.351562 13.125 -6 12.3125 -6.53125 C 11.5 -7.070312 10.582031 -7.34375 9.5625 -7.34375 C 7.84375 -7.34375 6.550781 -6.972656 5.6875 -6.234375 C 4.832031 -5.503906 4.257812 -4.578125 3.96875 -3.453125 C 3.675781 -2.328125 3.53125 -1.175781 3.53125 0 L 1.6875 0 L 1.6875 -49.828125 L 17.78125 -49.828125 L 17.78125 -26.828125 C 17.78125 -25.109375 17.390625 -23.785156 16.609375 -22.859375 C 15.828125 -21.929688 14.820312 -21.160156 13.59375 -20.546875 C 12.375 -19.929688 11.101562 -19.242188 9.78125 -18.484375 C 8.457031 -17.722656 7.265625 -16.707031 6.203125 -15.4375 C 5.148438 -14.164062 4.378906 -12.375 3.890625 -10.0625 C 5.515625 -13.101562 7.671875 -15.285156 10.359375 -16.609375 C 13.054688 -17.929688 15.679688 -18.59375 18.234375 -18.59375 C 20.046875 -18.59375 21.6875 -18.296875 23.15625 -17.703125 C 24.625 -17.117188 25.957031 -16.457031 27.15625 -15.71875 C 28.351562 -14.988281 29.453125 -14.328125 30.453125 -13.734375 C 31.460938 -13.148438 32.410156 -12.859375 33.296875 -12.859375 C 34.523438 -12.859375 35.539062 -13.238281 36.34375 -14 C 37.15625 -14.757812 37.753906 -15.65625 38.140625 -16.6875 C 38.535156 -17.71875 38.660156 -18.625 38.515625 -19.40625 Z M 40.34375 -19.328125 "/></g></g></g><g fill="#000000" fill-opacity="1"><g transform="translate(42.572179, 53.743906)"><g><path d="M 23.078125 0 L 1.328125 0 C 1.328125 -2.644531 1.71875 -5.410156 2.5 -8.296875 C 3.28125 -11.191406 4.296875 -14.0625 5.546875 -16.90625 C 6.796875 -19.75 8.117188 -22.421875 9.515625 -24.921875 C 10.910156 -27.421875 12.222656 -29.597656 13.453125 -31.453125 C 14.285156 -32.734375 15.191406 -34.007812 16.171875 -35.28125 C 17.148438 -36.550781 18.101562 -37.773438 19.03125 -38.953125 C 18.101562 -42.035156 17.195312 -44.363281 16.3125 -45.9375 C 15.4375 -47.507812 14.164062 -48.296875 12.5 -48.296875 L 12.5 -50.203125 C 16.21875 -50.203125 19.484375 -49.710938 22.296875 -48.734375 C 25.117188 -47.753906 27.546875 -46.453125 29.578125 -44.828125 C 31.617188 -43.210938 33.300781 -41.398438 34.625 -39.390625 C 35.945312 -37.378906 36.945312 -35.347656 37.625 -33.296875 C 39.195312 -28.585938 40.5 -24.101562 41.53125 -19.84375 C 42.5625 -15.582031 43.8125 -11.738281 45.28125 -8.3125 C 46.207031 -6.195312 47.46875 -5.03125 49.0625 -4.8125 C 50.65625 -4.59375 52.039062 -5.097656 53.21875 -6.328125 L 54.46875 -5 C 53 -2.9375 51.195312 -1.5 49.0625 -0.6875 C 46.925781 0.113281 44.929688 0.515625 43.078125 0.515625 C 40.378906 0.515625 37.9375 -0.144531 35.75 -1.46875 C 33.570312 -2.789062 31.722656 -4.515625 30.203125 -6.640625 C 28.691406 -8.773438 27.519531 -11.046875 26.6875 -13.453125 L 15.734375 -13.453125 C 16.566406 -10.804688 17.628906 -8.304688 18.921875 -5.953125 C 20.222656 -3.597656 21.609375 -1.613281 23.078125 0 Z M 26.09375 -15.21875 C 25.007812 -18.59375 23.941406 -22.191406 22.890625 -26.015625 C 21.835938 -29.835938 20.773438 -33.460938 19.703125 -36.890625 C 19.253906 -36.253906 18.8125 -35.640625 18.375 -35.046875 C 17.9375 -34.460938 17.492188 -33.832031 17.046875 -33.15625 C 15.378906 -30.65625 14.472656 -27.820312 14.328125 -24.65625 C 14.179688 -21.5 14.5 -18.351562 15.28125 -15.21875 Z M 26.09375 -15.21875 "/></g></g></g><g fill="#000000" fill-opacity="1"><g transform="translate(92.051032, 53.743906)"><g/></g></g><g fill="#000000" fill-opacity="1"><g transform="translate(111.454188, 53.743906)"><g/></g></g></g></g></g></g></g></g><g clip-path="url(#cca024a44e)"><path fill="#000000" d="M 356.296875 206.210938 C 317.53125 218.371094 285.757812 224.449219 260.980469 224.449219 C 247.90625 224.449219 232.777344 222.667969 215.589844 219.105469 C 213.027344 218.648438 199.269531 215.398438 174.308594 209.367188 C 159.675781 205.800781 148.933594 204.019531 142.078125 204.019531 C 128.273438 204.019531 114.558594 209.503906 100.933594 220.476562 C 100.570312 220.75 100.203125 220.886719 99.839844 220.886719 C 98.464844 220.886719 97.78125 220.25 97.78125 218.96875 C 97.78125 218.511719 98.011719 218.097656 98.464844 217.730469 C 112.269531 206.121094 127.816406 200.316406 145.097656 200.316406 C 156.890625 200.316406 169.507812 201.550781 182.945312 204.019531 C 194.832031 206.304688 206.671875 208.636719 218.46875 211.011719 C 233.460938 213.480469 248.546875 214.714844 263.726562 214.714844 C 298.832031 214.714844 329.324219 210.691406 355.199219 202.648438 C 356.84375 202.191406 357.667969 202.832031 357.667969 204.566406 C 357.667969 205.390625 357.210938 205.9375 356.296875 206.210938 Z M 356.296875 206.210938 " fill-opacity="1" fill-rule="nonzero"/></g></g></g></g></svg>